<svg xmlns="http://www.w3.org/2000/svg" viewBox="0 0 287 284.5"><defs><style>.cls-1{fill:#4ac1d4;stroke-width:1px;}.cls-1,.cls-2{stroke:#4ac1d4;stroke-miterlimit:10;}.cls-2,.cls-3{fill:#fff;}.cls-2{stroke-width:4px;}</style></defs><title>Asset 4</title><g id="Layer_2" data-name="Layer 2"><g id="Layer_3" data-name="Layer 3"><path class="cls-1" d="M99.23,151.55l1.53-.63a59.92,59.92,0,1,1,73.86.35l.53.28s53.82,20.22,70.69,90.12A141,141,0,0,0,286.5,142.5c0-78.42-64-142-143-142S.5,64.08.5,142.5A140.82,140.82,0,0,0,34,233.85C51.92,170.25,99.23,151.55,99.23,151.55Z"/><path class="cls-2" d="M143.5,282.5a143.06,143.06,0,0,0,102.34-42.83c-16.87-69.9-70.69-90.12-70.69-90.12l-.53-.28a59.93,59.93,0,1,0-73.86-.35l-1.53.63s-47.31,18.7-65.2,82.3A143.06,143.06,0,0,0,143.5,282.5Z"/><path class="cls-3" d="M195.94,100.86V77.27s0-36.46-27.87-36.46c-15-8.57-36.46-15-53.61-8.57S78,49.39,78,73s2.15,30,2.15,30Z"/></g></g></svg>