<?xml version="1.0" encoding="UTF-8"?>
<svg width="29px" height="22px" viewBox="0 0 29 22" version="1.1" xmlns="http://www.w3.org/2000/svg" xmlns:xlink="http://www.w3.org/1999/xlink">
    <!-- Generator: Sketch 49 (51002) - http://www.bohemiancoding.com/sketch -->
    <title>envelope-back-black-interface-symbol</title>
    <desc>Created with Sketch.</desc>
    <defs></defs>
    <g id="Page-1" stroke="none" stroke-width="1" fill="none" fill-rule="evenodd">
        <g id="detail-copy-7" transform="translate(-413.000000, -491.000000)" fill="#3C3C3C" fill-rule="nonzero">
            <g id="envelope-back-black-interface-symbol" transform="translate(413.000000, 491.000000)">
                <path d="M1.7190151,1.49227757 L12.0469529,9.38438112 C13.1207396,10.2052063 14.8788803,10.2052063 15.952667,9.38438112 L26.2806048,1.49227757 C27.3543915,0.671452396 27.2097776,0 25.9560775,0 L2.04354236,0 C0.790980992,0 0.645228397,0.671452396 1.7190151,1.49227757 Z" id="Shape"></path>
                <path d="M28.6867917,1 C28.4988718,1.42204263 28.1705919,1.86661422 27.606832,2.30367616 L17.6598349,10.0326134 L24.8239928,15.1541983 C25.1047128,15.3539551 25.2067927,15.8120441 25.0501928,16.1740094 C24.9446328,16.4218281 24.7462729,16.5615077 24.5421129,16.5615077 C24.4469929,16.5615077 24.350713,16.5299671 24.262553,16.466886 L16.4418353,10.8751967 C15.8583554,11.1665713 15.1925156,11.3302818 14.4999958,11.3302818 C13.808636,11.3302818 13.1416362,11.1680732 12.5581564,10.8751967 L4.73743863,16.466886 C4.64811866,16.531469 4.55183869,16.5615077 4.45787871,16.5615077 C4.25371877,16.5615077 4.05535883,16.4218281 3.94979886,16.1740094 C3.7943589,15.8105421 3.89643888,15.3539551 4.17715879,15.1541983 L11.3389967,10.0326134 L1.3931596,2.30367616 C0.83055976,1.86661422 0.502279855,1.42204263 0.31319991,1 C0.119479966,1.43856387 0,1.93720498 0,2.4748963 L0,18.9961379 C0,20.6482621 1.0439997,22 2.31999933,22 L26.6799923,22 C27.9559919,22 28.9999916,20.6482621 28.9999916,18.9961379 L28.9999916,2.4748963 C29.0011516,1.93720498 28.8816717,1.43856387 28.6867917,1 Z" id="Shape"></path>
            </g>
        </g>
    </g>
</svg>