<?xml version="1.0" encoding="utf-8"?>
<!-- Generator: Adobe Illustrator 22.0.1, SVG Export Plug-In . SVG Version: 6.00 Build 0)  -->
<svg version="1.1" id="Capa_1" xmlns="http://www.w3.org/2000/svg" xmlns:xlink="http://www.w3.org/1999/xlink" x="0px" y="0px"
	 viewBox="0 0 30 30" style="enable-background:new 0 0 30 30;" xml:space="preserve">
<style type="text/css">
	.st0{fill:#3C3C3C;}
</style>
<g>
	<g>
		<path class="st0" d="M29.8,18.2v11h-6.4V18.9c0-2.6-0.9-4.3-3.2-4.3c-1.8,0-2.8,1.2-3.3,2.3c-0.2,0.4-0.2,1-0.2,1.6v10.7h-6.4
			c0,0,0.1-17.3,0-19.1h6.4v2.7c0,0,0,0,0,0.1h0v-0.1c0.8-1.3,2.4-3.2,5.7-3.2C26.7,9.6,29.8,12.3,29.8,18.2L29.8,18.2z M3.8,0.8
			c-2.2,0-3.6,1.4-3.6,3.3c0,1.8,1.4,3.3,3.5,3.3h0c2.2,0,3.6-1.5,3.6-3.3C7.3,2.2,5.9,0.8,3.8,0.8L3.8,0.8z M0.5,29.2h6.4V10H0.5
			V29.2z"/>
	</g>
</g>
</svg>
