<?xml version="1.0" encoding="utf-8"?>
<!-- Generator: Adobe Illustrator 22.0.1, SVG Export Plug-In . SVG Version: 6.00 Build 0)  -->
<svg version="1.1" id="Layer_1" xmlns="http://www.w3.org/2000/svg" xmlns:xlink="http://www.w3.org/1999/xlink" x="0px" y="0px"
	 viewBox="0 0 273 50" style="enable-background:new 0 0 273 50;" xml:space="preserve">
<style type="text/css">
	.st0{fill:#FFFFFF;}
	.st1{enable-background:new    ;}
	.st2{fill:#3C3C3C;}
</style>
<title>Group 34</title>
<desc>Created with Sketch.</desc>
<g id="Page-1">
	<g id="Group-34">
		<path id="Rectangle-7" class="st0" d="M8,0h257c4.4,0,8,3.6,8,8v34c0,4.4-3.6,8-8,8H8c-4.4,0-8-3.6-8-8V8C0,3.6,3.6,0,8,0z"/>
		<g class="st1">
			<path class="st2" d="M52.2,16.3c0-0.3,0.2-0.5,0.5-0.5h3.1c0.3,0,0.5,0.2,0.5,0.5v13.9h6.2c0.3,0,0.5,0.2,0.5,0.5v2.8
				c0,0.3-0.2,0.5-0.5,0.5h-9.8c-0.3,0-0.5-0.2-0.5-0.5V16.3z"/>
			<path class="st2" d="M69.3,23.3c3,0,5.4,2.5,5.4,5.4c0,3-2.4,5.5-5.4,5.5c-3,0-5.4-2.5-5.4-5.5C63.9,25.8,66.3,23.3,69.3,23.3z
				 M69.3,30.9c1.1,0,2.1-1,2.1-2.1c0-1.1-0.9-2.1-2.1-2.1c-1.1,0-2.1,0.9-2.1,2.1C67.2,29.9,68.1,30.9,69.3,30.9z"/>
			<path class="st2" d="M77.7,30.2c0,0-0.8-0.8-0.8-2.4c0-2.4,2.1-4.5,4.6-4.5h4.9c0.3,0,0.5,0.2,0.5,0.5v1.1c0,0.2-0.1,0.4-0.3,0.4
				l-1.5,0.5c0,0,1,0.8,1,2.5c0,1.9-1.7,3.9-4.5,3.9h-1.9c-0.5,0-0.9,0.3-0.9,0.7c0,0.5,0.4,0.7,0.8,0.7h3.1c2.4,0,4.5,1.5,4.5,3.8
				c0,2.5-1.7,4.5-5.9,4.5c-4,0-5.4-1.9-5.4-3.5c0-1.6,1.3-2.3,1.6-2.5V36c-0.3-0.1-2-0.8-2-2.9C75.6,31,77.7,30.2,77.7,30.2z
				 M81.4,39c1.3,0,1.9-0.5,1.9-1.2c0-0.5-0.5-1.1-1.9-1.1c-0.9,0-1.9,0.3-1.9,1.1C79.6,38.5,80.2,39,81.4,39z M81.6,29.4
				c0.8,0,1.4-0.6,1.4-1.4c0-0.8-0.6-1.4-1.4-1.4c-0.8,0-1.4,0.6-1.4,1.4C80.2,28.9,80.8,29.4,81.6,29.4z"/>
			<path class="st2" d="M94.4,18.4c0-1.1,0.9-2.1,2.1-2.1c1.1,0,2.1,0.9,2.1,2.1s-0.9,2.1-2.1,2.1C95.3,20.5,94.4,19.5,94.4,18.4z
				 M94.5,24.1c0-0.3,0.2-0.5,0.5-0.5h2.9c0.3,0,0.5,0.2,0.5,0.5v9.4c0,0.3-0.2,0.5-0.5,0.5H95c-0.3,0-0.5-0.2-0.5-0.5V24.1z"/>
			<path class="st2" d="M101.2,24.1c0-0.3,0.2-0.5,0.5-0.5h1.2c0.2,0,0.4,0.1,0.5,0.3l0.4,1c0.6-0.6,1.8-1.6,3.7-1.6
				c3.2,0,4.9,2.5,4.9,5.4v4.7c0,0.3-0.2,0.5-0.5,0.5h-2.8c-0.3,0-0.5-0.2-0.5-0.5v-4.9c0-1-0.6-2-1.8-2c-1,0-2,0.8-2,1.8v5
				c0,0.2-0.1,0.5-0.5,0.5h-2.7c-0.3,0-0.5-0.2-0.5-0.5V24.1z"/>
			<path class="st2" d="M120.7,24.1c0-0.3,0.2-0.5,0.5-0.5h1.2c0.2,0,0.4,0.1,0.4,0.3l0.4,1.1c0.6-0.7,1.8-1.6,3.5-1.6
				c1.5,0,2.5,0.5,3.4,1.6c0.6-0.6,1.8-1.6,3.6-1.6c3.2,0,4.8,2.5,4.8,5.5v4.7c0,0.3-0.2,0.5-0.5,0.5h-2.8c-0.3,0-0.5-0.2-0.5-0.5
				v-4.9c0-1-0.5-2-1.7-2c-0.9,0-1.7,0.8-1.7,1.8v5c0,0.3-0.2,0.5-0.5,0.5h-2.5c-0.3,0-0.5-0.2-0.5-0.5v-4.9c0-1-0.5-2-1.6-2
				c-1,0-1.8,0.8-1.8,1.8v5c0,0.3-0.2,0.5-0.5,0.5h-2.7c-0.3,0-0.5-0.2-0.5-0.5V24.1z"/>
			<path class="st2" d="M145.7,23.3c2.7,0,4.9,2,4.9,4.9c0,0.2,0,0.5-0.1,0.7c0,0.3-0.3,0.4-0.5,0.4h-6.2c0.1,0.7,0.7,1.7,2,1.7
				c0.7,0,1.4-0.3,1.8-0.6c0.2-0.2,0.5-0.2,0.7,0l1.3,1.6c0.2,0.2,0.2,0.5,0,0.8c-0.9,0.9-2.2,1.5-3.8,1.5c-3.1,0-5.4-2.5-5.4-5.5
				C140.3,25.9,142.6,23.3,145.7,23.3z M147,27.3c-0.1-0.7-0.7-1.2-1.4-1.2c-0.7,0-1.3,0.5-1.4,1.2H147z"/>
			<path class="st2" d="M152.9,26.9h-0.7c-0.3,0-0.5-0.2-0.5-0.5v-2.3c0-0.3,0.2-0.5,0.5-0.5h0.7v-2.9c0-0.3,0.2-0.5,0.5-0.5h2.8
				c0.3,0,0.5,0.2,0.5,0.5v2.9h1.9c0.3,0,0.5,0.2,0.5,0.5v2.3c0,0.3-0.2,0.5-0.5,0.5h-1.9v3.3c0,0.6,0.4,0.6,0.7,0.6
				c0.4,0,0.8-0.1,1-0.2s0.5,0.1,0.6,0.3l0.6,2.2c0.1,0.2-0.1,0.5-0.3,0.6c0,0-1.8,0.6-3.1,0.6c-2,0-3.1-1.2-3.1-3.6V26.9z"/>
			<path class="st2" d="M167.8,26.9h-0.5c-0.3,0-0.5-0.2-0.5-0.5v-2.3c0-0.3,0.2-0.5,0.5-0.5h0.5v-2.4c0-3.6,2.3-5.7,5.3-5.7
				c1.4,0,2.7,0.6,3.2,1c0.2,0.1,0.2,0.4,0.1,0.6l-1.1,2.2c-0.1,0.2-0.4,0.3-0.6,0.2c-0.3-0.2-0.8-0.4-1.4-0.4
				c-1.1,0-1.5,0.9-1.5,2.2v2.4h2.4c0.3,0,0.5,0.2,0.5,0.5v2.3c0,0.3-0.2,0.5-0.5,0.5h-2.4v6.6c0,0.3-0.2,0.5-0.5,0.5h-3
				c-0.3,0-0.5-0.2-0.5-0.5V26.9z"/>
			<path class="st2" d="M179.5,27.3c1.2,0,2,0.4,2,0.4c0-1-0.2-1.5-1.4-1.5c-0.7,0-1.9,0.2-2.6,0.4c-0.4,0.1-0.6-0.2-0.6-0.5
				l-0.2-1.6c-0.1-0.4,0.2-0.6,0.4-0.7c0.2-0.1,2.1-0.4,3.5-0.4c3.2,0,4.4,1.4,4.4,4.4v5.7c0,0.3-0.2,0.5-0.5,0.5h-1.1
				c-0.2,0-0.3-0.1-0.5-0.3l-0.4-0.7c-0.6,0.5-1.5,1.3-3.1,1.3c-2.1,0-3.6-1.4-3.6-3.4C175.7,28.8,177.1,27.3,179.5,27.3z
				 M180.2,31.7c0.6,0,1.1-0.5,1.1-1.1c0-0.6-0.5-1.1-1.1-1.1s-1.1,0.5-1.1,1.1C179.1,31.2,179.6,31.7,180.2,31.7z"/>
			<path class="st2" d="M192.3,23.3c1.6,0,2.9,0.7,3.9,1.9c0.2,0.2,0.1,0.5-0.1,0.7l-1.6,1.5c-0.1,0.1-0.4,0.1-0.6-0.1
				c-0.4-0.4-0.9-0.7-1.5-0.7c-1.1,0-2.1,1-2.1,2.1c0,1.2,0.9,2.1,2,2.1c0.9,0,1.4-0.4,1.8-0.8c0.2-0.2,0.4-0.2,0.6-0.1l1.6,1.4
				c0.2,0.2,0.4,0.5,0.2,0.7c-1,1.5-2.3,2.2-4.2,2.2c-3,0-5.6-2.3-5.6-5.5C186.7,25.7,189.4,23.3,192.3,23.3z"/>
			<path class="st2" d="M203.1,23.3c2.7,0,4.9,2,4.9,4.9c0,0.2,0,0.5-0.1,0.7c0,0.3-0.3,0.4-0.5,0.4h-6.2c0.1,0.7,0.7,1.7,2,1.7
				c0.7,0,1.4-0.3,1.8-0.6c0.2-0.2,0.5-0.2,0.6,0L207,32c0.2,0.2,0.2,0.5,0,0.8c-0.9,0.9-2.2,1.5-3.8,1.5c-3.1,0-5.4-2.5-5.4-5.5
				C197.7,25.9,200,23.3,203.1,23.3z M204.3,27.3c-0.1-0.7-0.7-1.2-1.4-1.2c-0.7,0-1.3,0.5-1.4,1.2H204.3z"/>
			<path class="st2" d="M209.9,16.3c0-0.3,0.2-0.5,0.5-0.5h2.9c0.3,0,0.5,0.2,0.5,0.5v7.5c0.3-0.2,1.3-0.5,2.2-0.5
				c2.8,0,5.2,1.8,5.2,5.5c0,3-2.2,5.5-5.1,5.5c-2.3,0-3.5-1.6-3.5-1.6l-0.3,0.9c-0.1,0.3-0.3,0.5-0.5,0.5h-1.2
				c-0.3,0-0.5-0.2-0.5-0.5V16.3z M215.4,30.9c1.2,0,2.1-0.9,2.1-2.1c0-1.2-0.9-2.1-2.1-2.1s-2.1,0.9-2.1,2.1
				C213.3,30,214.2,30.9,215.4,30.9z"/>
			<path class="st2" d="M227.7,23.3c3,0,5.4,2.5,5.4,5.4c0,3-2.4,5.5-5.4,5.5c-3,0-5.4-2.5-5.4-5.5
				C222.3,25.8,224.8,23.3,227.7,23.3z M227.7,30.9c1.1,0,2.1-1,2.1-2.1c0-1.1-0.9-2.1-2.1-2.1c-1.1,0-2.1,0.9-2.1,2.1
				C225.7,29.9,226.6,30.9,227.7,30.9z"/>
			<path class="st2" d="M239.7,23.3c3,0,5.4,2.5,5.4,5.4c0,3-2.4,5.5-5.4,5.5c-3,0-5.4-2.5-5.4-5.5
				C234.3,25.8,236.8,23.3,239.7,23.3z M239.7,30.9c1.1,0,2.1-1,2.1-2.1c0-1.1-0.9-2.1-2.1-2.1c-1.1,0-2.1,0.9-2.1,2.1
				C237.7,29.9,238.6,30.9,239.7,30.9z"/>
			<path class="st2" d="M247.2,16.3c0-0.3,0.2-0.5,0.5-0.5h2.9c0.3,0,0.5,0.2,0.5,0.5v11.3l3.1-3.6c0.2-0.2,0.3-0.3,0.6-0.3h2.9
				c0.4,0,0.7,0.4,0.4,0.8l-3.4,4l4.2,4.8c0.3,0.3,0.1,0.8-0.4,0.8H255c-0.1,0-0.3-0.1-0.4-0.2l-3.5-4.5v4.2c0,0.3-0.2,0.5-0.5,0.5
				h-2.9c-0.3,0-0.5-0.2-0.5-0.5V16.3z"/>
		</g>
		<path id="Path-5" class="st2" d="M28.7,38.6V24.8h3.8l0.5-4.9h-4.3v-2.4c0-0.6,0.1-1.1,0.4-1.4c0.3-0.3,0.8-0.4,1.5-0.3H33V11
			h-4.2c-1.9,0-3.3,0.4-4.1,1.2c-1.2,1.2-1.8,2.8-1.9,5.7c-0.1,2.9,0.1,1.3,0.1,1.7s-0.3,0.2-1.2,0.2c-0.6,0-1.1,0-1.7,0v4.9h2.8
			l-0.1,13.8H28.7z"/>
	</g>
</g>
</svg>
