<?xml version="1.0" encoding="UTF-8"?>
<svg width="92px" height="18px" viewBox="0 0 92 18" version="1.1" xmlns="http://www.w3.org/2000/svg" xmlns:xlink="http://www.w3.org/1999/xlink">
    <!-- Generator: Sketch 49 (51002) - http://www.bohemiancoding.com/sketch -->
    <title>Group 12</title>
    <desc>Created with Sketch.</desc>
    <defs></defs>
    <g id="Page-1" stroke="none" stroke-width="1" fill="none" fill-rule="evenodd">
        <g id="filter" transform="translate(-20.000000, -26.000000)">
            <g id="Group-23-Copy-3" transform="translate(20.000000, 18.000000)">
                <g id="Group-12">
                    <path d="M5.24241759e-05,12.4755858 C-0.00177626066,12.3558427 0.0443032683,12.2404142 0.12786728,12.1554116 C0.211431292,12.0704091 0.325418781,12.0230149 0.444044437,12.0239504 L2.6182496,12.0239504 C2.86325945,12.0257822 3.06195312,12.2248457 3.06563086,12.4721643 L3.0808825,17.4059394 L7.19035055,12.1967351 C7.28033371,12.0916336 7.40613055,12.0244738 7.54283276,12.0085537 L9.88480589,12 C10.046622,12.0022393 10.1935195,12.0959147 10.2650332,12.242468 C10.3365469,12.3890213 10.3205902,12.5636833 10.2237311,12.6945606 L5.89396166,18.2031444 L10.6507768,24.4165532 C10.744865,24.5500236 10.7576443,24.7252328 10.6839359,24.8711757 C10.6102275,25.0171187 10.4622564,25.1095895 10.2999893,25.1111138 L7.73602012,25.1196675 C7.61105585,25.1198525 7.49040155,25.0735679 7.39709492,24.9896512 L3.08596637,19.1064153 L3.10460726,24.6954039 C3.10187838,24.9430209 2.90419315,25.1433448 2.65892062,25.1470393 L0.486410087,25.1470393 C0.367503709,25.1493519 0.252721109,25.1030406 0.168148652,25.0186304 C0.0835761943,24.9342203 0.0363972978,24.818881 0.0373341962,24.6988254 L5.24241759e-05,12.4755858 Z" id="Shape" fill="#000000" fill-rule="nonzero"></path>
                    <path d="M13,12.3575447 C13.0052805,12.1629886 13.1597863,12.0062637 13.3524822,12 L15.5809154,12 C15.773008,12.005282 15.9280132,12.1602638 15.9350922,12.3541232 L15.9740686,24.7723872 C15.9687882,24.9669433 15.8142824,25.1236682 15.6215864,25.1299319 L13.3931532,25.1299319 C13.1997409,25.1264328 13.042754,24.9709575 13.0355871,24.7758087 L13,12.3575447 Z" id="Shape" fill="#000000" fill-rule="nonzero"></path>
                    <path d="M19.0000164,12.3832099 C18.9991079,12.2884019 19.0358976,12.1971856 19.1021492,12.1299825 C19.1684008,12.0627794 19.2585804,12.0252028 19.3524986,12.0256652 L27.0444061,12.0000041 C27.1381834,11.999549 27.2282746,12.0368375 27.2947448,12.1036187 C27.361215,12.1703999 27.398584,12.2611679 27.3985829,12.3558381 L27.3985829,14.4001728 C27.3990338,14.4948419 27.3620965,14.5857898 27.2959443,14.652892 C27.2297921,14.7199943 27.1398791,14.7577186 27.0461007,14.7577175 L21.8995215,14.7748249 L21.8995215,17.099721 L26.1360865,17.0860351 C26.3284537,17.0922019 26.483232,17.2477045 26.4902634,17.4418691 L26.4902634,19.4862037 C26.4907142,19.5808728 26.4537769,19.6718207 26.3876248,19.738923 C26.3214726,19.8060253 26.2315596,19.8437496 26.1377812,19.8437485 L21.9012162,19.8574344 L21.9096893,22.3910408 L27.0562685,22.3739334 C27.1500458,22.3734782 27.240137,22.4107668 27.3066072,22.477548 C27.3730774,22.5443292 27.4104464,22.6350972 27.4104453,22.7297674 L27.4104453,24.774102 C27.4104475,24.9709024 27.2529074,25.1307051 27.0579631,25.1316468 L19.3660557,25.1555971 C19.1767206,25.1445936 19.0299484,24.9843303 19.033909,24.7929202 L19.0000164,12.3832099 Z" id="Shape" fill="#000000" fill-rule="nonzero"></path>
                    <path d="M29.1169292,23.5389434 L29.9845777,21.980459 C30.1320102,21.7358231 30.4929655,21.7717487 30.6166732,21.8658394 C30.6912368,21.9017649 32.0316859,22.8922836 33.2585951,22.8922836 C34.0008413,22.8922836 34.5380378,22.4184085 34.5363431,21.763195 C34.5363431,20.9745437 33.8822175,20.3757846 32.6163319,19.8813806 C31.0166049,19.2484067 29.0067785,17.9995663 29,15.7465213 C29,13.8886573 30.418402,12.0085537 33.2806253,12 C35.2124989,12 36.7020752,12.9836757 37.2613018,13.3942534 C37.4832978,13.5242696 37.4477106,13.8629962 37.3731471,13.9947232 L36.430935,15.4420095 C36.3021434,15.6490091 35.9666075,15.8183724 35.7988395,15.6866454 C35.6293769,15.5942654 34.2736761,14.5661105 33.1399713,14.5712427 C32.4705941,14.5712427 31.9706794,15.0245889 31.9706794,15.530968 C31.9706794,16.2255286 32.5332952,16.7473044 34.0042306,17.3443527 C35.475166,17.9414011 37.7629111,19.0550931 37.7713842,21.6092283 C37.7713842,23.5406542 36.1292916,25.4977411 33.3975545,25.5062948 C30.9827124,25.5062948 29.6405686,24.5055117 29.2118283,24.0744051 C29.0305033,23.87767 28.9745806,23.8023974 29.1169292,23.5389434 Z" id="Shape" fill="#000000" fill-rule="nonzero"></path>
                    <path d="M41.0113545,14.7748373 L38.3541809,14.783391 C38.2604035,14.7838462 38.1703124,14.7465577 38.1038421,14.6797765 C38.0373719,14.6129952 38.000003,14.5222273 38.0000041,14.4275571 L38.0000041,12.3832224 C37.9995532,12.2885533 38.0364905,12.1976054 38.1026427,12.1305031 C38.1687948,12.0634009 38.2587078,12.0256766 38.3524863,12.0256777 L46.6019257,12.0000166 C46.6955462,11.9991034 46.7856435,12.0360091 46.8521638,12.1025194 C46.9186841,12.1690296 46.9561069,12.2596246 46.9561025,12.3541398 L46.9561025,14.4070282 C46.9561025,14.5014012 46.9189661,14.591909 46.8528629,14.6586408 C46.7867596,14.7253726 46.6971044,14.7628622 46.6036203,14.7628622 L43.9464467,14.7628622 L43.97695,24.7809574 C43.9708957,24.9745209 43.8178356,25.1305295 43.6261624,25.1385022 L41.3960346,25.1385022 C41.2033111,25.1331715 41.0480625,24.9771965 41.0418578,24.7826682 L41.0113545,14.7748373 Z" id="Shape" fill="#000000" fill-rule="nonzero"></path>
                    <path d="M57.0016946,24.4712969 L61.91611,14.8141678 L61.91611,14.7765315 L57.8642593,14.7885067 C57.672519,14.7823949 57.51798,14.6278793 57.5100824,14.4343835 L57.5100824,12.3814951 C57.5161367,12.1879316 57.6691968,12.0319231 57.86087,12.0239504 L65.7578272,12 C65.9499198,12.005282 66.104925,12.1602638 66.112004,12.3541232 L66.112004,12.5987591 L61.3670512,22.3499789 L61.3670512,22.3876152 L65.4172074,22.3739293 C65.5109847,22.3734741 65.6010759,22.4107626 65.6675461,22.4775439 C65.7340163,22.5443251 65.7713853,22.6350931 65.7713842,22.7297632 L65.7713842,24.7826516 C65.771835,24.8773207 65.7348978,24.9682686 65.6687456,25.0353709 C65.6025934,25.1024732 65.5126804,25.1401974 65.418902,25.1401964 L57.3541768,25.1658575 C57.1621622,25.1588683 57.0078441,25.0038282 57,24.8100235 L57.0016946,24.4712969 Z" id="Shape" fill="#000000" fill-rule="nonzero"></path>
                    <path d="M68,12.3814992 C67.9999978,12.1846989 68.1575379,12.0248961 68.3524822,12.0239545 L76.0443896,12.0000041 C76.138167,11.999549 76.2282582,12.0368375 76.2947284,12.1036187 C76.3611986,12.1703999 76.3985676,12.2611679 76.3985665,12.3558381 L76.3985665,14.4087265 C76.3990173,14.5033956 76.36208,14.5943435 76.2959279,14.6614457 C76.2297757,14.728548 76.1398627,14.7662723 76.0460843,14.7662712 L70.8995051,14.7833786 L70.8995051,17.1082747 L75.1360701,17.0945888 C75.3284372,17.1007556 75.4832156,17.2562582 75.4902469,17.4504228 L75.4902469,19.4947574 C75.4906978,19.5894265 75.4537605,19.6803744 75.3876083,19.7474767 C75.3214562,19.814579 75.2315432,19.8523033 75.1377647,19.8523022 L70.9011997,19.8659881 L70.9096728,22.3978837 L76.056252,22.3824871 C76.1500294,22.3820319 76.2401206,22.4193205 76.3065908,22.4861017 C76.373061,22.5528829 76.4104299,22.6436509 76.4104288,22.7383211 L76.4104288,24.7826557 C76.4104311,24.9794561 76.252891,25.1392588 76.0579466,25.1402005 L68.3660392,25.1641508 C68.2722619,25.164606 68.1821707,25.1273175 68.1157004,25.0605362 C68.0492302,24.993755 68.0118613,24.902987 68.0118624,24.8083168 L68,12.3814992 Z" id="Shape" fill="#000000" fill-rule="nonzero"></path>
                    <text id="/" font-family="BrandonGrotesque-Black, Brandon Grotesque" font-size="24" font-weight="700" fill="#3AC1D8">
                        <tspan x="83" y="25">/</tspan>
                    </text>
                </g>
            </g>
        </g>
    </g>
</svg>