<?xml version="1.0" encoding="UTF-8"?>
<svg width="117px" height="50px" viewBox="0 0 117 50" version="1.1" xmlns="http://www.w3.org/2000/svg" xmlns:xlink="http://www.w3.org/1999/xlink">
    <!-- Generator: Sketch 49 (51002) - http://www.bohemiancoding.com/sketch -->
    <title>okbe-logo</title>
    <desc>Created with Sketch.</desc>
    <defs></defs>
    <g id="Page-1" stroke="none" stroke-width="1" fill="none" fill-rule="evenodd">
        <g id="Desktop" transform="translate(-92.000000, -623.000000)" fill="#FFFFFF" fill-rule="nonzero">
            <g id="okbe-logo" transform="translate(92.000000, 622.000000)">
                <g id="Group">
                    <path d="M36.5592028,13.2560276 L35.9671747,12.8140069 C36.0726846,12.6877153 44.3903869,1.76923077 44.3903869,1.76923077 L44.9882767,2.20551091 C44.9062134,2.31458094 36.5943728,13.2101033 36.5592028,13.2560276" id="Shape"></path>
                    <rect id="Rectangle-path" transform="translate(36.471734, 10.248923) rotate(-58.377858) translate(-36.471734, -10.248923) " x="34.0016156" y="9.74892183" width="4.94124188" height="1"></rect>
                    <rect id="Rectangle-path" transform="translate(35.321634, 8.836634) rotate(-63.537446) translate(-35.321634, -8.836634) " x="32.1600726" y="8.33663187" width="6.32455407" height="1"></rect>
                    <rect id="Rectangle-path" transform="translate(33.897266, 7.758454) rotate(-68.679484) translate(-33.897266, -7.758454) " x="30.3224056" y="7.25845158" width="7.15152958" height="1"></rect>
                    <rect id="Rectangle-path" transform="translate(32.615507, 5.875406) rotate(-73.812214) translate(-32.615507, -5.875406) " x="27.6427228" y="5.37540189" width="9.94773043" height="1"></rect>
                    <rect id="Rectangle-path" transform="translate(30.480082, 6.893529) rotate(-78.954122) translate(-30.480082, -6.893529) " x="27.0346027" y="6.39352409" width="6.89349972" height="1"></rect>
                    <rect id="Rectangle-path" transform="translate(28.715166, 6.903122) rotate(-84.082461) translate(-28.715166, -6.903122) " x="25.5528168" y="6.40312212" width="6.32491869" height="1"></rect>
                    <rect id="Rectangle-path" transform="translate(26.973459, 7.589069) rotate(-89.232256) translate(-26.973459, -7.589069) " x="24.6291262" y="7.08906863" width="4.68928381" height="1"></rect>
                    <rect id="Rectangle-path" transform="translate(25.212886, 6.458958) rotate(-4.382903) translate(-25.212886, -6.458958) " x="24.7128856" y="2.98826338" width="1" height="6.94046834"></rect>
                    <rect id="Rectangle-path" transform="translate(23.586821, 7.435355) rotate(-9.526375) translate(-23.586821, -7.435355) " x="23.0868192" y="4.75679085" width="1" height="5.35586103"></rect>
                    <rect id="Rectangle-path" transform="translate(22.007730, 8.067073) rotate(-14.667155) translate(-22.007730, -8.067073) " x="21.5077274" y="5.69259311" width="1" height="4.74735267"></rect>
                    <rect id="Rectangle-path" transform="translate(20.116505, 7.728495) rotate(-19.810305) translate(-20.116505, -7.728495) " x="19.6165007" y="4.49280015" width="1" height="6.46943885"></rect>
                    <rect id="Rectangle-path" transform="translate(19.203478, 9.860715) rotate(-24.955625) translate(-19.203478, -9.860715) " x="18.7034722" y="8.26662942" width="1" height="3.18587072"></rect>
                    <rect id="Rectangle-path" transform="translate(17.559668, 10.193542) rotate(-30.093115) translate(-17.559668, -10.193542) " x="17.0596681" y="8.15844041" width="1" height="4.0699795"></rect>
                    <rect id="Rectangle-path" transform="translate(17.000769, 12.195951) rotate(-35.237968) translate(-17.000769, -12.195951) " x="16.5007687" y="11.5727893" width="1" height="1.24575143"></rect>
                    <rect id="Rectangle-path" transform="translate(14.144842, 11.178212) rotate(-40.380688) translate(-14.144842, -11.178212) " x="13.6448409" y="8.04324765" width="1" height="6.26901292"></rect>
                    <rect id="Rectangle-path" transform="translate(13.290283, 12.739992) rotate(-45.526675) translate(-13.290283, -12.739992) " x="12.7902812" y="10.1876098" width="1" height="5.10349618"></rect>
                    <rect id="Rectangle-path" transform="translate(11.342505, 13.306484) rotate(-50.669071) translate(-11.342505, -13.306484) " x="10.8425025" y="9.72071037" width="1" height="7.16993645"></rect>
                    <rect id="Rectangle-path" transform="translate(10.686458, 14.968059) rotate(-55.812536) translate(-10.686458, -14.968059) " x="10.1864537" y="11.8758193" width="1" height="6.18252236"></rect>
                    <rect id="Rectangle-path" transform="translate(7.603509, 15.232160) rotate(-60.953744) translate(-7.603509, -15.232160) " x="7.10350339" y="9.72028154" width="1" height="11.0214607"></rect>
                    <rect id="Rectangle-path" transform="translate(10.051084, 18.384763) rotate(-66.095688) translate(-10.051084, -18.384763) " x="9.55108354" y="16.4443996" width="1" height="3.88049744"></rect>
                    <rect id="Rectangle-path" transform="translate(6.634176, 18.932740) rotate(-71.240735) translate(-6.634176, -18.932740) " x="6.1341753" y="14.0729811" width="1" height="9.71893848"></rect>
                    <rect id="Rectangle-path" transform="translate(5.543993, 20.577854) rotate(-76.384817) translate(-5.543993, -20.577854) " x="5.04399167" y="15.1669358" width="1" height="10.8209105"></rect>
                    <rect id="Rectangle-path" transform="translate(8.439377, 22.926725) rotate(-81.523912) translate(-8.439377, -22.926725) " x="7.9393755" y="20.7618656" width="1" height="4.32845683"></rect>
                    <rect id="Rectangle-path" transform="translate(6.457539, 24.429384) rotate(-86.668122) translate(-6.457539, -24.429384) " x="5.95753666" y="20.4992261" width="1" height="7.85870716"></rect>
                    <rect id="Rectangle-path" transform="translate(7.380003, 26.425328) rotate(-1.806835) translate(-7.380003, -26.425328) " x="4.32422794" y="25.925324" width="6.11369913" height="1"></rect>
                    <rect id="Rectangle-path" transform="translate(6.678658, 28.208542) rotate(-6.950183) translate(-6.678658, -28.208542) " x="2.77039619" y="27.7085367" width="7.81905317" height="1"></rect>
                    <rect id="Rectangle-path" transform="translate(8.499263, 29.631239) rotate(-12.098759) translate(-8.499263, -29.631239) " x="6.13125238" y="29.1312391" width="4.73628429" height="1"></rect>
                    <rect id="Rectangle-path" transform="translate(10.323190, 30.782700) rotate(-17.240893) translate(-10.323190, -30.782700) " x="9.41492089" y="30.2826997" width="1.81717872" height="1"></rect>
                    <rect id="Rectangle-path" transform="translate(9.057853, 32.906755) rotate(-22.384498) translate(-9.057853, -32.906755) " x="6.20974668" y="32.4067546" width="5.69723555" height="1"></rect>
                    <rect id="Rectangle-path" transform="translate(9.394945, 34.619517) rotate(-27.536247) translate(-9.394945, -34.619517) " x="6.10440266" y="34.1195153" width="6.58251183" height="1"></rect>
                    <rect id="Rectangle-path" transform="translate(9.777111, 36.409332) rotate(-32.669818) translate(-9.777111, -36.409332) " x="5.88876631" y="35.9093294" width="7.77847294" height="1"></rect>
                    <rect id="Rectangle-path" transform="translate(11.096253, 37.634874) rotate(-37.822218) translate(-11.096253, -37.634874) " x="7.55111799" y="37.1348697" width="7.09245915" height="1"></rect>
                    <rect id="Rectangle-path" transform="translate(12.393165, 38.817251) rotate(-42.953579) translate(-12.393165, -38.817251) " x="9.04159035" y="38.317246" width="6.70568934" height="1"></rect>
                    <rect id="Rectangle-path" transform="translate(13.578397, 40.092413) rotate(-48.088591) translate(-13.578397, -40.092413) " x="10.1200334" y="39.5924134" width="6.9169637" height="1"></rect>
                    <rect id="Rectangle-path" transform="translate(15.133151, 40.925642) rotate(-53.232085) translate(-15.133151, -40.925642) " x="11.9885459" y="40.4256417" width="6.28982778" height="1"></rect>
                    <rect id="Rectangle-path" transform="translate(17.382667, 40.578566) rotate(-58.385741) translate(-17.382667, -40.578566) " x="15.78587" y="40.0785647" width="3.19462037" height="1"></rect>
                    <rect id="Rectangle-path" transform="translate(17.628832, 43.591777) rotate(-63.532316) translate(-17.628832, -43.591777) " x="13.4471773" y="43.0917755" width="8.36472741" height="1"></rect>
                    <rect id="Rectangle-path" transform="translate(19.692395, 43.329581) rotate(-68.672063) translate(-19.692395, -43.329581) " x="16.5866537" y="42.829578" width="6.21327121" height="1"></rect>
                    <rect id="Rectangle-path" transform="translate(21.646191, 42.810187) rotate(-73.799612) translate(-21.646191, -42.810187) " x="19.6630648" y="42.310183" width="3.96838092" height="1"></rect>
                    <rect id="Rectangle-path" transform="translate(23.068871, 44.004728) rotate(-78.954122) translate(-23.068871, -44.004728) " x="20.2183658" y="43.5047224" width="5.70355036" height="1"></rect>
                    <rect id="Rectangle-path" transform="translate(24.752525, 44.282864) rotate(-84.082461) translate(-24.752525, -44.282864) " x="21.8510269" y="43.7828641" width="5.80321548" height="1"></rect>
                    <rect id="Rectangle-path" transform="translate(26.471739, 43.475508) rotate(-89.226468) translate(-26.471739, -43.475508) " x="24.4878846" y="42.9755081" width="3.96831182" height="1"></rect>
                    <rect id="Rectangle-path" transform="translate(28.173389, 44.528276) rotate(-4.381897) translate(-28.173389, -44.528276) " x="27.6733884" y="41.4680442" width="1" height="6.1195445"></rect>
                    <rect id="Rectangle-path" transform="translate(30.006364, 45.001189) rotate(-9.526375) translate(-30.006364, -45.001189) " x="29.506362" y="41.2434161" width="1" height="7.51427877"></rect>
                    <rect id="Rectangle-path" transform="translate(32.107038, 45.920804) rotate(-14.667155) translate(-32.107038, -45.920804) " x="31.6070357" y="40.8196104" width="1" height="10.2007808"></rect>
                    <rect id="Rectangle-path" transform="translate(32.956004, 42.689349) rotate(-19.815696) translate(-32.956004, -42.689349) " x="32.4560002" y="40.4179586" width="1" height="4.54081596"></rect>
                    <rect id="Rectangle-path" transform="translate(34.831765, 42.795228) rotate(-24.955625) translate(-34.831765, -42.795228) " x="34.3317597" y="39.7172725" width="1" height="6.15360975"></rect>
                    <rect id="Rectangle-path" transform="translate(37.883564, 44.566319) rotate(-30.098072) translate(-37.883564, -44.566319) " x="37.3835644" y="38.526944" width="1" height="12.0785138"></rect>
                    <rect id="Rectangle-path" transform="translate(38.001102, 41.331207) rotate(-35.241274) translate(-38.001102, -41.331207) " x="37.5011014" y="37.9412567" width="1" height="6.77931928"></rect>
                    <polygon id="Shape" points="37.1512309 38.4626866 36.7584994 38.0034443 37.3329426 37.5269805 37.7256741 37.9862227"></polygon>
                    <rect id="Rectangle-path" transform="translate(40.539751, 38.964650) rotate(-45.526675) translate(-40.539751, -38.964650) " x="40.039749" y="35.7463446" width="1" height="6.4353422"></rect>
                    <rect id="Rectangle-path" transform="translate(41.132339, 37.232242) rotate(-50.669071) translate(-41.132339, -37.232242) " x="40.6323363" y="34.7285602" width="1" height="5.00575227"></rect>
                    <rect id="Rectangle-path" transform="translate(42.574223, 36.205413) rotate(-55.812536) translate(-42.574223, -36.205413) " x="42.0742192" y="33.1763191" width="1" height="6.05623129"></rect>
                    <rect id="Rectangle-path" transform="translate(42.787216, 34.390261) rotate(-60.953744) translate(-42.787216, -34.390261) " x="42.2872103" y="32.1274168" width="1" height="4.52339116"></rect>
                    <rect id="Rectangle-path" transform="translate(45.389986, 33.743432) rotate(-66.095688) translate(-45.389986, -33.743432) " x="44.8899856" y="29.4753433" width="1" height="8.53594629"></rect>
                    <rect id="Rectangle-path" transform="translate(42.900541, 31.015190) rotate(-71.246161) translate(-42.900541, -31.015190) " x="42.4005409" y="30.0045697" width="1" height="2.02064757"></rect>
                    <path d="M49.7772567,31.5970149 C49.7772567,31.5970149 42.4091442,29.8461538 42.1922626,29.7944891 L42.3681125,29.0884041 C42.4091442,29.0998852 49.947245,30.8851894 49.947245,30.8851894 L49.7772567,31.5970149 Z" id="Shape"></path>
                    <rect id="Rectangle-path" transform="translate(45.637071, 28.368008) rotate(-81.529579) translate(-45.637071, -28.368008) " x="45.137069" y="25.3420876" width="1" height="6.05056535"></rect>
                    <rect id="Rectangle-path" transform="translate(45.358362, 26.658549) rotate(-86.666804) translate(-45.358362, -26.658549) " x="44.858359" y="24.0745304" width="1" height="5.16643237"></rect>
                    <rect id="Rectangle-path" transform="translate(44.698407, 25.288744) rotate(-1.812126) translate(-44.698407, -25.288744) " x="42.7358298" y="24.7887404" width="3.92731579" height="1"></rect>
                    <rect id="Rectangle-path" transform="translate(44.334492, 23.733030) rotate(-6.949490) translate(-44.334492, -23.733030) " x="42.6328619" y="23.2330252" width="3.40578775" height="1"></rect>
                    <rect id="Rectangle-path" transform="translate(44.839954, 22.018778) rotate(-12.093156) translate(-44.839954, -22.018778) " x="42.3606146" y="21.5187777" width="4.95892642" height="1"></rect>
                    <rect id="Rectangle-path" transform="translate(43.173665, 20.812644) rotate(-17.248064) translate(-43.173665, -20.812644) " x="42.0016991" y="20.3126432" width="2.34459232" height="1"></rect>
                    <rect id="Rectangle-path" transform="translate(43.143251, 19.184946) rotate(-22.377019) translate(-43.143251, -19.184946) " x="41.4526603" y="18.6849453" width="3.3821849" height="1"></rect>
                    <rect id="Rectangle-path" transform="translate(44.391631, 16.779205) rotate(-27.528518) translate(-44.391631, -16.779205) " x="40.5440684" y="16.2792033" width="7.69653155" height="1"></rect>
                    <rect id="Rectangle-path" transform="translate(44.405648, 14.682395) rotate(-32.669818) translate(-44.405648, -14.682395) " x="39.4856444" y="14.1823925" width="9.84179056" height="1"></rect>
                    <rect id="Rectangle-path" transform="translate(40.321412, 15.445916) rotate(-37.814179) translate(-40.321412, -15.445916) " x="39.2029225" y="14.9459124" width="2.23914653" height="1"></rect>
                    <path d="M38.6752638,15.1963261 L38.1711606,14.6567164 C38.2883939,14.5476464 39.4138335,13.5200918 39.4138335,13.5200918 L39.9237984,14.0597015 C39.9237984,14.0597015 38.6987104,15.1733639 38.6752638,15.1963261" id="Shape"></path>
                    <rect id="Rectangle-path" transform="translate(41.720424, 9.399692) rotate(-48.100947) translate(-41.720424, -9.399692) " x="35.3754986" y="8.89969227" width="12.6901191" height="1"></rect>
                    <g transform="translate(18.698710, 20.690011)" id="Shape">
                        <path d="M7.1922626,5.46498278 C6.88159437,5.12055109 6.40093787,4.86796785 5.75029308,4.71871412 C6.04923798,4.60964409 6.30128957,4.48335247 6.5123095,4.34557979 C6.72332943,4.19058553 6.8933177,4.0413318 7.03399766,3.8576349 C7.16295428,3.67967853 7.27432591,3.49598163 7.33294256,3.28932262 C7.40328253,3.09414466 7.43259086,2.88748565 7.43259086,2.66360505 C7.43259086,2.26176808 7.36225088,1.91733639 7.22157093,1.58438576 C7.08089097,1.25143513 6.85228605,0.975889782 6.55334115,0.752009185 C6.25439625,0.528128588 5.86166471,0.350172216 5.38100821,0.223880597 C4.9003517,0.0975889782 4.32004689,0.045924225 3.64009379,0.045924225 L0,0.045924225 L0,9.73593571 L3.95076202,9.73593571 C4.54279015,9.73593571 5.07033998,9.66704937 5.53927315,9.51205511 C5.99062134,9.35706085 6.38921454,9.15040184 6.69988277,8.88633754 C7.02813599,8.62227325 7.25087925,8.31802526 7.42086753,7.95637199 C7.5908558,7.6119403 7.67291911,7.22158439 7.66119578,6.80826636 C7.66119578,6.25717566 7.50293083,5.81515499 7.1922626,5.46498278 Z M2.3094959,1.73938002 L3.65181712,1.73938002 C3.9038687,1.73938002 4.13247362,1.76808266 4.32004689,1.7967853 C4.5017585,1.82548794 4.67174678,1.89437428 4.78898007,1.99196326 C4.9003517,2.08955224 5,2.21584386 5.05861665,2.36509759 C5.11723329,2.5315729 5.14067995,2.70952928 5.14067995,2.94489093 C5.14067995,3.18025258 5.0996483,3.37543054 5.02930832,3.52468427 C4.95896835,3.67967853 4.84759672,3.80022962 4.7010551,3.88633754 C4.56037515,3.96670494 4.37280188,4.02411022 4.17936694,4.06429392 C3.98007034,4.10447761 3.75732708,4.1216992 3.49941383,4.13318025 L2.3094959,4.13318025 L2.3094959,1.73938002 Z M5.35169988,7.22732491 C5.31066823,7.38231917 5.24032825,7.50287026 5.12309496,7.62916188 C5.01172333,7.7554535 4.87104338,7.85304248 4.67174678,7.92192882 C4.47245018,7.99081515 4.22039859,8.03099885 3.92145369,8.03099885 L2.3094959,8.03099885 L2.3094959,5.61997704 L3.90973036,5.61997704 C4.20867526,5.61997704 4.44900352,5.64867968 4.63071512,5.70034443 C4.81242673,5.75774971 4.97069168,5.82663605 5.08206331,5.92422503 C5.19343494,6.02181401 5.28135991,6.14810563 5.33411489,6.2858783 C5.37514654,6.44087256 5.40445487,6.59012629 5.40445487,6.77382319 C5.41031653,6.92307692 5.39273154,7.07233065 5.35169988,7.22732491 Z"></path>
                        <polygon points="15.2872216 1.76234214 15.2872216 0.045924225 8.92145369 0.045924225 8.92145369 9.73593571 15.2872216 9.73593571 15.2872216 8.00229621 11.2250879 8.00229621 11.2250879 5.68886338 14.3434936 5.68886338 14.3434936 4.02411022 11.2250879 4.02411022 11.2250879 1.76234214"></polygon>
                    </g>
                </g>
                <g id="Group" transform="translate(56.000000, 15.000000)">
                    <path d="M2.83294393,4.96354167 C1.15070093,4.96354167 0.0292056075,3.90104167 0.0292056075,2.50520833 C0.0292056075,1.109375 1.15070093,0.046875 2.83294393,0.046875 C4.50350467,0.046875 5.625,1.11979167 5.625,2.50520833 C5.625,3.890625 4.50934579,4.96354167 2.83294393,4.96354167 Z M2.83294393,0.973958333 C1.86915888,0.973958333 1.31425234,1.55208333 1.31425234,2.50520833 C1.31425234,3.47395833 1.88084112,4.03645833 2.83294393,4.03645833 C3.78504673,4.03645833 4.34579439,3.46875 4.34579439,2.50520833 C4.35163551,1.55208333 3.78504673,0.973958333 2.83294393,0.973958333 Z" id="Shape"></path>
                    <path d="M9.09462617,3.30729167 L9.09462617,4.91145833 L7.84462617,4.91145833 L7.84462617,0.104166667 L9.74299065,0.104166667 C11.2558411,0.104166667 11.9100467,0.786458333 11.9100467,1.671875 C11.9100467,2.63020833 11.2324766,3.30208333 9.74299065,3.30208333 L9.09462617,3.30208333 L9.09462617,3.30729167 Z M9.09462617,2.46354167 L9.74299065,2.46354167 C10.3913551,2.46354167 10.6600467,2.171875 10.6600467,1.67708333 C10.6600467,1.24479167 10.3738318,0.942708333 9.74299065,0.942708333 L9.09462617,0.942708333 L9.09462617,2.46354167 Z" id="Shape"></path>
                    <polygon id="Shape" points="17.6635514 0.104166667 17.6635514 0.963541667 15.4556075 0.963541667 15.4556075 2.08333333 17.1436916 2.08333333 17.1436916 2.90625 15.4556075 2.90625 15.4556075 4.05208333 17.6635514 4.05208333 17.6635514 4.91145833 14.1939252 4.91145833 14.1939252 0.104166667"></polygon>
                    <path d="M21.3551402,0.270833333 L23.9077103,3.15104167 C23.8901869,2.96354167 23.8785047,2.78645833 23.8785047,2.63541667 L23.8785047,0.0885416667 L24.9824766,0.0885416667 L24.9824766,4.89583333 L24.3341121,4.89583333 C24.1471963,4.89583333 24.0186916,4.84895833 23.896028,4.70833333 L21.3609813,1.84375 C21.3726636,2.01041667 21.3901869,2.171875 21.3901869,2.3125 L21.3901869,4.88541667 L20.286215,4.88541667 L20.286215,0.078125 L20.9404206,0.078125 C21.1565421,0.104166667 21.2266355,0.130208333 21.3551402,0.270833333 Z" id="Shape"></path>
                </g>
                <g id="Group" transform="translate(56.000000, 25.000000)">
                    <path d="M1.25030199,2.02105263 L1.44620184,2.02105263 C1.63057817,2.02105263 1.7573369,1.96842105 1.83800154,1.86842105 L3.03644769,0.284210526 C3.16320642,0.115789474 3.31877395,0.0578947368 3.56652964,0.0578947368 L4.63821706,0.0578947368 L3.07101825,2.02105263 C2.95578305,2.16315789 2.83478608,2.25263158 2.70802735,2.31578947 C2.89240368,2.37894737 3.04220945,2.47894737 3.16896818,2.66315789 L4.77649931,4.91052632 L3.67600309,4.91052632 C3.39367683,4.91052632 3.29572691,4.83684211 3.19777698,4.70526316 L1.99356907,3.01052632 C1.90714267,2.88421053 1.7861457,2.84210526 1.54991353,2.84210526 L1.25606375,2.84210526 L1.25606375,4.91052632 L0.0288088016,4.91052632 L0.0288088016,0.0526315789 L1.26182551,0.0526315789 L1.26182551,2.01578947 L1.25030199,2.01578947 L1.25030199,2.02105263 Z" id="Shape"></path>
                    <path d="M8.17017614,0.226315789 L10.6880654,3.13684211 C10.6707801,2.94736842 10.6592566,2.76842105 10.6592566,2.61578947 L10.6592566,0.0421052632 L11.7482293,0.0421052632 L11.7482293,4.9 L11.1086739,4.9 C10.9242976,4.9 10.7975388,4.85263158 10.6765419,4.71052632 L8.1759379,1.81578947 C8.18746142,1.98421053 8.2047467,2.14736842 8.2047467,2.28947368 L8.2047467,4.89473684 L7.115774,4.89473684 L7.115774,0.0368421053 L7.76109116,0.0368421053 C7.97427629,0.0578947368 8.03765565,0.0842105263 8.17017614,0.226315789 Z" id="Shape"></path>
                    <path d="M16.8704342,4.96842105 C15.2110473,4.96842105 14.1047893,3.89473684 14.1047893,2.48421053 C14.1047893,1.07894737 15.2110473,0 16.8704342,0 C18.5182977,0 19.6245557,1.08421053 19.6245557,2.48421053 C19.6303174,3.88421053 18.5182977,4.96842105 16.8704342,4.96842105 Z M16.8704342,0.936842105 C15.9197438,0.936842105 15.3723765,1.52105263 15.3723765,2.48421053 C15.3723765,3.46315789 15.9312673,4.03157895 16.8704342,4.03157895 C17.8096012,4.03157895 18.3627302,3.45789474 18.3627302,2.48421053 C18.3627302,1.51578947 17.8153629,0.936842105 16.8704342,0.936842105 Z" id="Shape"></path>
                    <path d="M20.9843311,0.0578947368 L22.021448,0.0578947368 C22.2346331,0.0578947368 22.3844389,0.157894737 22.4305329,0.3 L23.1565147,2.83684211 C23.2083706,3 23.2544647,3.18421053 23.2832735,3.39473684 C23.3351293,3.18947368 23.3927469,3 23.4503645,2.83684211 L24.3146286,0.3 C24.3549609,0.173684211 24.5105284,0.0578947368 24.7179518,0.0578947368 L25.0809427,0.0578947368 C25.2941278,0.0578947368 25.4324101,0.147368421 25.4900277,0.3 L26.3427682,2.83684211 C26.4003858,2.98947368 26.4580034,3.16842105 26.4983357,3.36315789 C26.5386681,3.16842105 26.5790004,2.98947368 26.6250945,2.83684211 L27.3510763,0.3 C27.3914086,0.163157895 27.5469761,0.0578947368 27.7543995,0.0578947368 L28.728137,0.0578947368 L27.091797,4.91578947 L25.9740155,4.91578947 L24.9714692,1.90526316 C24.9426604,1.81578947 24.9023281,1.7 24.8619958,1.57368421 C24.833187,1.7 24.7928547,1.80526316 24.7525223,1.90526316 L23.7442143,4.91578947 L22.6264328,4.91578947 L20.9843311,0.0578947368 Z" id="Shape"></path>
                    <polygon id="Shape" points="32.1736696 4.00526316 34.1441917 4.00526316 34.1441917 4.9 30.9348912 4.9 30.9348912 0.0421052632 32.1679079 0.0421052632 32.1679079 4.00526316"></polygon>
                    <polygon id="Shape" points="40.1825165 0.0578947368 40.1825165 0.926315789 38.0045711 0.926315789 38.0045711 2.05263158 39.6697198 2.05263158 39.6697198 2.88421053 38.0045711 2.88421053 38.0045711 4.04210526 40.1825165 4.04210526 40.1825165 4.91052632 36.7600309 4.91052632 36.7600309 0.0526315789 40.1825165 0.0526315789"></polygon>
                    <path d="M44.8322571,4.91052632 L42.7753086,4.91052632 L42.7753086,0.0526315789 L44.8322571,0.0526315789 C46.4801205,0.0526315789 47.5863785,1.08421053 47.5863785,2.47894737 C47.597902,3.88421053 46.4916441,4.91052632 44.8322571,4.91052632 Z M44.8322571,0.926315789 L44.0083254,0.926315789 L44.0083254,4.04210526 L44.8322571,4.04210526 C45.771424,4.04210526 46.324553,3.45263158 46.324553,2.48421053 C46.3360765,1.51578947 45.7771858,0.926315789 44.8322571,0.926315789 Z" id="Shape"></path>
                    <path d="M53.1234302,3.95263158 L53.1234302,3.21578947 L52.5933482,3.21578947 C52.4377807,3.21578947 52.3455925,3.13684211 52.3455925,3.02105263 L52.3455925,2.40526316 L54.2412117,2.40526316 L54.2412117,4.45789474 C53.6996062,4.82631579 53.0715743,4.97894737 52.2015485,4.97894737 C50.651635,4.97894737 49.4819977,3.92105263 49.4819977,2.49473684 C49.4819977,1.04210526 50.5824939,0.0105263158 52.2879749,0.0105263158 C53.1810478,0.0105263158 53.8378885,0.289473684 54.2700205,0.663157895 L53.9185531,1.15789474 C53.849412,1.24736842 53.7514621,1.31052632 53.6419886,1.31052632 C53.5728475,1.31052632 53.4921828,1.28421053 53.41728,1.24736842 C53.0254803,1.03157895 52.7489158,0.942105263 52.2591661,0.942105263 C51.3372845,0.942105263 50.7611085,1.55789474 50.7611085,2.48947368 C50.7611085,3.52105263 51.4179491,4.1 52.311022,4.1 C52.6279188,4.09473684 52.887198,4.04210526 53.1234302,3.95263158 Z" id="Shape"></path>
                    <polygon id="Shape" points="60.1527778 0.0578947368 60.1527778 0.926315789 57.9748324 0.926315789 57.9748324 2.05263158 59.6399811 2.05263158 59.6399811 2.88421053 57.9748324 2.88421053 57.9748324 4.04210526 60.1527778 4.04210526 60.1527778 4.91052632 56.7302921 4.91052632 56.7302921 0.0526315789 60.1527778 0.0526315789"></polygon>
                </g>
                <g id="Group" transform="translate(56.000000, 35.000000)">
                    <path d="M0.0458333333,4.91489362 L0.0458333333,0.0904255319 L1.7015625,0.0904255319 C2.02239583,0.0904255319 2.29739583,0.117021277 2.53229167,0.180851064 C2.7671875,0.244680851 2.95052083,0.324468085 3.09947917,0.436170213 C3.2484375,0.542553191 3.36302083,0.670212766 3.43177083,0.835106383 C3.50052083,0.989361702 3.540625,1.17021277 3.540625,1.36170213 C3.540625,1.4787234 3.5234375,1.59574468 3.48333333,1.70744681 C3.44322917,1.81382979 3.3859375,1.91489362 3.3,2.01595745 C3.21979167,2.10638298 3.11666667,2.19680851 2.99635417,2.2712766 C2.8703125,2.34574468 2.7328125,2.40957447 2.56666667,2.45212766 C2.94479167,2.52659574 3.23125,2.64893617 3.42604167,2.82978723 C3.62083333,3.0106383 3.71822917,3.25531915 3.71822917,3.55319149 C3.71822917,3.7606383 3.678125,3.94148936 3.60364583,4.11702128 C3.5234375,4.28723404 3.40885417,4.43617021 3.25416667,4.55319149 C3.09947917,4.67021277 2.9046875,4.7712766 2.68125,4.83510638 C2.4578125,4.89893617 2.19427083,4.93617021 1.91354167,4.93617021 L0.0630208333,4.93617021 L0.0630208333,4.91489362 L0.0458333333,4.91489362 Z M0.750520833,2.24468085 L1.67864583,2.24468085 C1.8734375,2.24468085 2.05104167,2.2287234 2.19427083,2.18085106 C2.34322917,2.13297872 2.4578125,2.07978723 2.55520833,2.0106383 C2.65260417,1.93617021 2.72135417,1.84574468 2.7671875,1.75 C2.81875,1.64893617 2.8359375,1.53191489 2.8359375,1.41489362 C2.8359375,1.13297872 2.75,0.925531915 2.5609375,0.792553191 C2.37760417,0.654255319 2.09114583,0.595744681 1.7015625,0.595744681 L0.744791667,0.595744681 L0.750520833,2.24468085 Z M0.750520833,2.71276596 L0.750520833,4.38829787 L1.8734375,4.38829787 C2.0796875,4.38829787 2.24583333,4.37234043 2.3890625,4.32446809 C2.53802083,4.27659574 2.65260417,4.22340426 2.73854167,4.14361702 C2.8359375,4.06382979 2.9046875,3.97340426 2.94479167,3.87234043 C2.98489583,3.76595745 3.01354167,3.64361702 3.01354167,3.5212766 C3.01354167,3.26595745 2.91614583,3.07978723 2.7328125,2.93085106 C2.54947917,2.78723404 2.25729167,2.71276596 1.8734375,2.71276596 L0.750520833,2.71276596 Z" id="Shape"></path>
                    <polygon id="Shape" points="10.1119792 0.0904255319 10.1119792 0.622340426 7.6140625 0.622340426 7.6140625 2.22340426 9.63072917 2.22340426 9.63072917 2.7393617 7.6140625 2.7393617 7.6140625 4.38829787 10.1119792 4.38829787 10.1119792 4.92021277 6.91510417 4.92021277 6.91510417 0.0957446809 10.1119792 0.0957446809"></polygon>
                    <polygon id="Shape" points="14.0135417 4.36170213 16.2651042 4.36170213 16.2651042 4.91489362 13.3088542 4.91489362 13.3088542 0.0904255319 14.0135417 0.0904255319"></polygon>
                    <path d="M21.51875,4.43617021 C21.65625,4.43617021 21.79375,4.42553191 21.9083333,4.42021277 C22.0229167,4.40957447 22.1317708,4.39361702 22.240625,4.36702128 C22.3494792,4.34042553 22.446875,4.31382979 22.5328125,4.27659574 C22.61875,4.2393617 22.7161458,4.20212766 22.8078125,4.15957447 L22.8078125,3.08510638 L22,3.08510638 C21.9484375,3.08510638 21.9197917,3.07446809 21.8911458,3.04787234 C21.8625,3.0212766 21.8510417,2.99468085 21.8510417,2.95744681 L21.8510417,2.58510638 L23.4494792,2.58510638 L23.4494792,4.44148936 C23.3234375,4.53191489 23.1859375,4.60638298 23.0427083,4.67021277 C22.9052083,4.73404255 22.7505208,4.78723404 22.5958333,4.83510638 C22.4411458,4.88297872 22.2635417,4.90957447 22.0802083,4.93617021 C21.896875,4.95212766 21.7020833,4.97340426 21.484375,4.97340426 C21.10625,4.97340426 20.7625,4.90957447 20.453125,4.79255319 C20.14375,4.67553191 19.86875,4.50531915 19.6453125,4.28723404 C19.421875,4.06914894 19.2442708,3.80851064 19.1182292,3.5106383 C18.9921875,3.21276596 18.9234375,2.87765957 18.9234375,2.51595745 C18.9234375,2.14361702 18.9807292,1.80851064 19.1067708,1.5106383 C19.2328125,1.21276596 19.4104167,0.946808511 19.6453125,0.734042553 C19.8802083,0.521276596 20.1552083,0.356382979 20.4817708,0.228723404 C20.8140625,0.111702128 21.175,0.0478723404 21.5817708,0.0478723404 C21.7880208,0.0478723404 21.9828125,0.0638297872 22.1546875,0.0957446809 C22.3322917,0.122340426 22.4984375,0.170212766 22.6416667,0.212765957 C22.7963542,0.265957447 22.9338542,0.329787234 23.0598958,0.404255319 C23.1859375,0.478723404 23.30625,0.569148936 23.4208333,0.659574468 L23.2260417,0.957446809 C23.1859375,1.0212766 23.1286458,1.04787234 23.0713542,1.04787234 C23.03125,1.04787234 22.9911458,1.03723404 22.9453125,1.0106383 C22.8880208,0.984042553 22.8192708,0.936170213 22.7390625,0.893617021 C22.6588542,0.85106383 22.5729167,0.803191489 22.4640625,0.765957447 C22.3552083,0.728723404 22.2291667,0.691489362 22.0859375,0.659574468 C21.9369792,0.622340426 21.7651042,0.611702128 21.5703125,0.611702128 C21.278125,0.611702128 21.0145833,0.659574468 20.7796875,0.75 C20.5447917,0.840425532 20.3385417,0.968085106 20.1723958,1.12765957 C20.00625,1.29255319 19.8802083,1.4893617 19.7942708,1.72340426 C19.7083333,1.95744681 19.6567708,2.22340426 19.6567708,2.5106383 C19.6567708,2.81914894 19.7083333,3.09042553 19.7942708,3.32446809 C19.8916667,3.55851064 20.0177083,3.76595745 20.1838542,3.93085106 C20.35,4.09574468 20.55625,4.21808511 20.7911458,4.30851064 C20.9859375,4.38829787 21.2494792,4.43617021 21.51875,4.43617021 Z" id="Shape"></path>
                    <polygon id="Shape" points="27.534375 4.91489362 26.8296875 4.91489362 26.8296875 0.0904255319 27.534375 0.0904255319"></polygon>
                    <path d="M33.1317708,4.38829787 C33.34375,4.38829787 33.5385417,4.35106383 33.7046875,4.28723404 C33.8708333,4.22340426 34.0140625,4.12234043 34.134375,4.00531915 C34.2489583,3.88829787 34.340625,3.74468085 34.409375,3.56914894 C34.478125,3.39361702 34.4953125,3.21808511 34.4953125,3.01595745 L34.4953125,0.079787234 L35.2,0.079787234 L35.2,3.01595745 C35.2,3.29787234 35.1484375,3.54787234 35.0510417,3.79255319 C34.9536458,4.02659574 34.8161458,4.23404255 34.6442708,4.40957447 C34.4666667,4.57978723 34.2546875,4.71808511 33.9911458,4.81914894 C33.7390625,4.92021277 33.446875,4.96276596 33.1260417,4.96276596 C32.8052083,4.96276596 32.51875,4.91489362 32.2609375,4.81914894 C31.9973958,4.71808511 31.7854167,4.58510638 31.6078125,4.40957447 C31.4302083,4.2393617 31.2984375,4.03191489 31.2010417,3.79255319 C31.1036458,3.55851064 31.0520833,3.29255319 31.0520833,3.01595745 L31.0520833,0.079787234 L31.7567708,0.079787234 L31.7567708,3.01595745 C31.7567708,3.21276596 31.7854167,3.40425532 31.8427083,3.56914894 C31.9,3.73404255 31.9916667,3.88829787 32.1177083,4.00531915 C32.24375,4.12234043 32.38125,4.22340426 32.5473958,4.28723404 C32.7135417,4.35106383 32.9083333,4.38829787 33.1317708,4.38829787 Z" id="Shape"></path>
                    <path d="M41.2270833,3.34042553 C41.2557292,3.40425532 41.2786458,3.45744681 41.3072917,3.5212766 C41.3244792,3.45744681 41.3588542,3.39361702 41.3875,3.34042553 C41.4161458,3.28723404 41.4447917,3.22340426 41.4734375,3.17021277 L43.2265625,0.20212766 C43.2552083,0.14893617 43.2953125,0.122340426 43.3239583,0.111702128 C43.3526042,0.10106383 43.4041667,0.0957446809 43.4729167,0.0957446809 L43.9885417,0.0957446809 L43.9885417,4.92021277 L43.3755208,4.92021277 L43.3755208,1.37234043 C43.3755208,1.32446809 43.3755208,1.2712766 43.3755208,1.21808511 C43.3755208,1.16489362 43.3869792,1.11170213 43.3869792,1.05319149 L41.6052083,4.06914894 C41.5479167,4.17021277 41.45625,4.22340426 41.353125,4.22340426 L41.2557292,4.22340426 C41.146875,4.22340426 41.0609375,4.17021277 41.0036458,4.06914894 L39.1817708,1.04255319 C39.1932292,1.09574468 39.1932292,1.15957447 39.1989583,1.21276596 C39.1989583,1.26595745 39.2104167,1.31914894 39.2104167,1.36702128 L39.2104167,4.91489362 L38.5973958,4.91489362 L38.5973958,0.0904255319 L39.1130208,0.0904255319 C39.1703125,0.0904255319 39.221875,0.10106383 39.2619792,0.106382979 C39.290625,0.117021277 39.3307292,0.154255319 39.359375,0.196808511 L41.1526042,3.16489362 C41.1697917,3.22340426 41.1984375,3.27659574 41.2270833,3.34042553 Z" id="Shape"></path>
                </g>
            </g>
        </g>
    </g>
</svg>