<?xml version="1.0" encoding="UTF-8"?>
<svg width="15px" height="15px" viewBox="0 0 15 15" version="1.1" xmlns="http://www.w3.org/2000/svg" xmlns:xlink="http://www.w3.org/1999/xlink">
    <!-- Generator: Sketch 49 (51002) - http://www.bohemiancoding.com/sketch -->
    <title>Shape</title>
    <desc>Created with Sketch.</desc>
    <defs></defs>
    <g id="Page-1" stroke="none" stroke-width="1" fill="none" fill-rule="evenodd">
        <g id="filter" transform="translate(-232.000000, -26.000000)" fill="#3AC1D8" fill-rule="nonzero">
            <path d="M242.619644,35.3515723 L241.951793,35.3515723 L241.715086,35.1233194 C242.54356,34.1595851 243.042334,32.9084211 243.042334,31.5473577 C243.042334,28.5124398 240.582276,26.052381 237.547358,26.052381 C234.51244,26.052381 232.052381,28.5124398 232.052381,31.5473577 C232.052381,34.5822756 234.51244,37.0423344 237.547358,37.0423344 C238.908421,37.0423344 240.159585,36.5435596 241.123319,35.7150862 L241.351572,35.9517929 L241.351572,36.6196439 L245.578477,40.8380952 L246.838095,39.5784775 L242.619644,35.3515723 Z M237.547358,35.3515723 C235.442359,35.3515723 233.743143,33.6523564 233.743143,31.5473577 C233.743143,29.4423589 235.442359,27.743143 237.547358,27.743143 C239.652356,27.743143 241.351572,29.4423589 241.351572,31.5473577 C241.351572,33.6523564 239.652356,35.3515723 237.547358,35.3515723 Z" id="Shape"></path>
        </g>
    </g>
</svg>