<?xml version="1.0" encoding="UTF-8"?>
<svg width="22px" height="22px" viewBox="0 0 22 22" version="1.1" xmlns="http://www.w3.org/2000/svg" xmlns:xlink="http://www.w3.org/1999/xlink">
    <!-- Generator: Sketch 49 (51002) - http://www.bohemiancoding.com/sketch -->
    <title>Group 4 Copy 4</title>
    <desc>Created with Sketch.</desc>
    <defs></defs>
    <g id="Page-1" stroke="none" stroke-width="1" fill="none" fill-rule="evenodd">
        <g id="Home" transform="translate(-897.000000, -375.000000)">
            <g id="Group-4-Copy-4" transform="translate(892.000000, 374.000000)">
                <g id="ic_search_black_24px" transform="translate(0.619048, 0.619048)">
                    <path d="M19.9925999,14.1180593 L19.0053418,14.1180593 L18.6554276,13.780642 C19.8801274,12.3559912 20.6174467,10.5064445 20.6174467,8.49443764 C20.6174467,4.00803725 16.980838,0.371428571 12.4944376,0.371428571 C8.00803725,0.371428571 4.37142857,4.00803725 4.37142857,8.49443764 C4.37142857,12.980838 8.00803725,16.6174467 12.4944376,16.6174467 C14.5064445,16.6174467 16.3559912,15.8801274 17.780642,14.6554276 L18.1180593,15.0053418 L18.1180593,15.9925999 L24.3665278,22.2285714 L26.2285714,20.3665278 L19.9925999,14.1180593 Z M12.4944376,14.1180593 C9.38270032,14.1180593 6.87081598,11.606175 6.87081598,8.49443764 C6.87081598,5.38270032 9.38270032,2.87081598 12.4944376,2.87081598 C15.606175,2.87081598 18.1180593,5.38270032 18.1180593,8.49443764 C18.1180593,11.606175 15.606175,14.1180593 12.4944376,14.1180593 Z" id="Shape" fill="#FFFFFF" fill-rule="nonzero"></path>
                    <polygon id="Shape" points="0 4 29.1428571 4 29.1428571 33.1428571 0 33.1428571"></polygon>
                </g>
            </g>
        </g>
    </g>
</svg>