<?xml version="1.0" encoding="utf-8"?>
<!-- Generator: Adobe Illustrator 22.0.1, SVG Export Plug-In . SVG Version: 6.00 Build 0)  -->
<svg version="1.1" id="Capa_1" xmlns="http://www.w3.org/2000/svg" xmlns:xlink="http://www.w3.org/1999/xlink" x="0px" y="0px"
	 viewBox="0 0 30 30" style="enable-background:new 0 0 30 30;" xml:space="preserve">
<style type="text/css">
	.st0{fill:#3C3C3C;}
</style>
<g>
	<g>
		<path class="st0" d="M29.9,5.8c-1.1,0.5-2.3,0.8-3.5,1c1.3-0.8,2.2-2,2.7-3.4c-1.2,0.7-2.5,1.2-3.9,1.5c-1.1-1.2-2.7-1.9-4.5-1.9
			c-3.4,0-6.1,2.7-6.1,6.1c0,0.5,0.1,0.9,0.2,1.4C9.7,10.2,5.2,7.7,2.2,4C1.7,4.9,1.4,6,1.4,7.1c0,2.1,1.1,4,2.7,5.1
			c-1,0-1.9-0.3-2.8-0.8v0.1c0,3,2.1,5.4,4.9,6c-0.5,0.1-1.1,0.2-1.6,0.2c-0.4,0-0.8,0-1.1-0.1c0.8,2.4,3,4.2,5.7,4.2
			c-2.1,1.6-4.7,2.6-7.6,2.6c-0.5,0-1,0-1.5-0.1c2.7,1.7,5.9,2.7,9.4,2.7c11.2,0,17.4-9.3,17.4-17.4l0-0.8C28,8.1,29.1,7,29.9,5.8z"
			/>
	</g>
</g>
</svg>
