<?xml version="1.0" encoding="UTF-8"?>
<svg width="420px" height="446px" viewBox="0 0 420 446" version="1.1" xmlns="http://www.w3.org/2000/svg" xmlns:xlink="http://www.w3.org/1999/xlink">
    <!-- Generator: Sketch 49 (51002) - http://www.bohemiancoding.com/sketch -->
    <title>Asset 2</title>
    <desc>Created with Sketch.</desc>
    <defs></defs>
    <g id="Page-1" stroke="none" stroke-width="1" fill="none" fill-rule="evenodd" stroke-linecap="round" stroke-linejoin="round">
        <g id="filter-copy-3" transform="translate(-73.000000, -169.000000)">
            <g id="Asset-2" transform="translate(75.000000, 171.000000)">
                <ellipse id="Oval" stroke="#FFFFFF" stroke-width="3.78" cx="70.4174545" cy="189.568188" rx="20.9512727" ry="20.9587447"></ellipse>
                <path d="M71.6276364,253.245193 L31.7483636,253.245193 C31.7483636,216.170157 56.8974545,206.226733 56.8974545,206.226733" id="Shape" stroke="#FFFFFF" stroke-width="3.78"></path>
                <path d="M83.4395152,206.226733 C83.4395152,206.226733 109.912242,216.170157 109.912242,253.245193 L70.0140606,253.245193" id="Shape" stroke="#FFFFFF" stroke-width="3.78"></path>
                <ellipse id="Oval" stroke="#FFFFFF" stroke-width="3.78" cx="354.621091" cy="189.568188" rx="20.9512727" ry="20.9587447"></ellipse>
                <path d="M355.82497,253.245193 L315.945697,253.245193 C315.945697,216.170157 341.101091,206.226733 341.101091,206.226733" id="Shape" stroke="#FFFFFF" stroke-width="3.78"></path>
                <path d="M367.636848,206.226733 C367.636848,206.226733 394.109576,216.170157 394.109576,253.245193 L354.230303,253.245193" id="Shape" stroke="#FFFFFF" stroke-width="3.78"></path>
                <ellipse id="Oval" stroke="#FFFFFF" stroke-width="3.78" cx="212.519273" cy="318.996633" rx="20.9512727" ry="20.9587447"></ellipse>
                <path d="M213.729455,382.673638 L173.843879,382.673638 C173.843879,345.598602 198.999273,335.655178 198.999273,335.655178" id="Shape" stroke="#FFFFFF" stroke-width="3.78"></path>
                <path d="M225.541333,335.655178 C225.541333,335.655178 252.014061,345.598602 252.014061,382.673638 L212.115879,382.673638" id="Shape" stroke="#FFFFFF" stroke-width="3.78"></path>
                <ellipse id="Oval" stroke="#FFFFFF" stroke-width="3.78" cx="212.519273" cy="60.1397432" rx="20.9512727" ry="20.9587447"></ellipse>
                <path d="M213.729455,123.816748 L173.843879,123.816748 C173.843879,86.7417118 198.999273,76.7982882 198.999273,76.7982882" id="Shape" stroke="#FFFFFF" stroke-width="3.78"></path>
                <path d="M212.115879,123.816748 L251.995152,123.816748 C251.995152,86.7417118 225.522424,76.7982882 225.522424,76.7982882" id="Shape" stroke="#FFFFFF" stroke-width="3.78"></path>
                <path d="M274.295273,427.195207 L217.895758,427.195207 C217.895758,427.195207 204.073212,429.963224 204.073212,411.709444 L204.073212,381.286476" id="Shape" stroke="#FFFFFF" stroke-width="3.78" stroke-dasharray="8.29079990386963"></path>
                <rect id="Rectangle-path" stroke="#FFFFFF" stroke-width="3.78" fill="#4AC1D4" fill-rule="nonzero" x="144.490667" y="178.49612" width="139.025939" height="89.4088445" rx="3.6729"></rect>
                <rect id="Rectangle-path" stroke="#FFFFFF" stroke-width="3.78" fill="#4AC1D4" fill-rule="nonzero" x="150.560485" y="183.458374" width="126.886303" height="81.1300143"></rect>
                <path d="M138.975515,264.588388 L289.038061,264.588388 C289.038061,264.588388 290.141091,272.312354 285.72897,272.312354 L143.387636,272.312354 C143.387636,272.312354 137.872485,272.312354 138.975515,264.588388 Z" id="Shape" stroke="#FFFFFF" stroke-width="3.78" fill="#4AC1D4" fill-rule="nonzero"></path>
                <path d="M174.058182,183.458374 L174.058182,264.588388" id="Shape" stroke="#FFFFFF" stroke-width="3.78" fill="#FFFFFF" fill-rule="nonzero"></path>
                <rect id="Rectangle-path" stroke="#FFFFFF" stroke-width="3.78" x="183.109333" y="204.971983" width="14.345697" height="23.1782026" rx="1.8837"></rect>
                <rect id="Rectangle-path" stroke="#FFFFFF" stroke-width="3.78" x="206.285576" y="204.971983" width="14.345697" height="23.1782026" rx="1.8837"></rect>
                <rect id="Rectangle-path" stroke="#FFFFFF" stroke-width="3.78" x="229.455515" y="204.971983" width="14.345697" height="23.1782026" rx="1.8837"></rect>
                <rect id="Rectangle-path" stroke="#FFFFFF" stroke-width="3.78" x="252.625455" y="204.971983" width="14.345697" height="23.1782026" rx="1.8837"></rect>
                <rect id="Rectangle-path" stroke="#FFFFFF" stroke-width="3.78" x="183.109333" y="232.570185" width="14.345697" height="23.1782026" rx="1.8837"></rect>
                <rect id="Rectangle-path" stroke="#FFFFFF" stroke-width="3.78" x="206.285576" y="232.570185" width="14.345697" height="23.1782026" rx="1.8837"></rect>
                <rect id="Rectangle-path" stroke="#FFFFFF" stroke-width="3.78" x="229.455515" y="232.570185" width="14.345697" height="23.1782026" rx="1.8837"></rect>
                <rect id="Rectangle-path" stroke="#FFFFFF" stroke-width="3.78" x="252.625455" y="232.570185" width="14.345697" height="23.1782026" rx="1.8837"></rect>
                <path d="M206.833939,194.498916 L239.937455,194.498916" id="Shape" stroke="#FFFFFF" stroke-width="3.78" fill="#FFFFFF" fill-rule="nonzero"></path>
                <path d="M156.182788,210.318859 L156.182788,221.89535" id="Shape" stroke="#FFFFFF" stroke-width="3.78" stroke-dasharray="13.2362998008728"></path>
                <path d="M350.599758,254.10271 C341.460364,308.435292 301.877333,350.869815 249.593697,365.39087" id="Shape" stroke="#FFFFFF" stroke-width="3.78"></path>
                <path d="M243.334788,90.348331 C288.149333,100.108902 323.603879,131.603766 341.466667,172.796148" id="Shape" stroke="#FFFFFF" stroke-width="3.78"></path>
                <path d="M82.3364848,171.780999 C100.615273,130.5697 136.731636,100.159344 181.955879,90.9031954" id="Shape" stroke="#FFFFFF" stroke-width="3.78"></path>
                <path d="M175.444848,365.819629 C122.417455,351.79669 81.8007273,308.870357 72.4848485,254.10271" id="Shape" stroke="#FFFFFF" stroke-width="3.78"></path>
                <ellipse id="Oval" stroke="#F9F9F9" stroke-width="3.78" cx="34.0174545" cy="58.4625392" rx="7.48169697" ry="7.48436519"></ellipse>
                <ellipse id="Oval" stroke="#F9F9F9" stroke-width="3.78" cx="68.646303" cy="30.71301" rx="5.18109091" ry="5.18293866"></ellipse>
                <ellipse id="Oval" stroke="#F9F9F9" stroke-width="3.78" cx="80.7292121" cy="75.4426534" rx="7.77163636" ry="7.77440799"></ellipse>
                <path d="M107.870061,81.3380884 L101.667879,77.384679 C101.712,76.8361198 101.730909,76.2812553 101.730909,75.7200856 C101.736021,73.4902333 101.374005,71.2747597 100.659394,69.1625963 L105.93503,64.1183738 L101.875879,58.0148645 L95.2829091,60.7576605 C93.2040538,58.7958542 90.7368391,57.2922282 88.0407273,56.3439658 L87.5364848,49.0361484 L80.2501818,48.2669044 L78.0630303,55.4170899 C75.3185051,55.835968 72.6887116,56.8122998 70.3355152,58.2859914 L64.1270303,53.8092439 L58.8766061,58.9543509 L63.2887273,65.6946933 C62.0014416,67.9960189 61.171015,70.5245849 60.8431515,73.1412268 L53.456,75.36699 L54.3195152,82.643281 L62.0911515,83.2233666 C63.0579779,85.6914131 64.4942942,87.9483689 66.3204848,89.8691298 L63.238303,96.9751783 L69.3522424,101.010556 L74.9556364,95.2979743 C76.9780873,95.9382475 79.0869305,96.2636186 81.2082424,96.2626819 C81.6284444,96.2626819 82.0486465,96.2500713 82.4688485,96.2248502 L86.8809697,102.895835 L93.606303,99.9764907 L92.0998788,93.1541797 C94.6815676,91.5360145 96.8746102,89.3680248 98.5226667,86.8047646 L105.203879,88.17301 L107.870061,81.3380884 Z" id="Shape" stroke="#F9F9F9" stroke-width="3.78"></path>
                <path d="M56.6138182,63.4184879 L51.4390303,60.1145221 C51.4768485,59.6542368 51.4957576,59.1939515 51.4957576,58.7273609 C51.497441,56.8643805 51.1951225,55.0136169 50.6007273,53.2480742 L55.0128485,49.0550642 L51.6218182,43.9603994 L46.1192727,46.2555207 C44.3818862,44.6153303 42.3207952,43.3567573 40.0683636,42.5606277 L39.6460606,36.4571184 L33.5636364,35.8265906 L31.7357576,41.7913837 C29.4448826,42.1428796 27.2503685,42.9604828 25.2877576,44.1936947 L20.1066667,40.4546648 L15.7260606,44.7233381 L19.4133333,50.3539515 C18.3320971,52.272973 17.6362242,54.3848973 17.3648485,56.5709558 L11.1941818,58.4247076 L11.9190303,64.5029957 L18.4048485,64.9821969 C19.2122839,67.0423604 20.4109176,68.9265994 21.9345455,70.5308417 L19.3629091,76.4641084 L24.4683636,79.8374322 L29.1389091,75.0328103 C30.8262638,75.5712995 32.5866802,75.845665 34.3578182,75.8461912 C34.7107879,75.8461912 35.0574545,75.8335806 35.3978182,75.8083595 L39.0787879,81.4074465 L44.6884848,78.9673039 L43.4278788,73.2925535 C45.5852522,71.9454493 47.4171813,70.1365548 48.7917576,67.9961198 L54.3699394,69.1373752 L56.6138182,63.4184879 Z" id="Shape" stroke="#F9F9F9" stroke-width="3.78"></path>
                <path d="M85.5195152,34.4205136 L81.6935758,31.9740656 C81.6935758,31.6398859 81.737697,31.2930956 81.737697,30.9526106 C81.7394058,29.5761922 81.5158431,28.2087783 81.0758788,26.904622 L84.3345455,23.8024251 L81.8133333,20.0192582 L77.7478788,21.715378 C76.4637826,20.504969 74.9418898,19.5751882 73.2790303,18.9851926 L72.9638788,14.4769187 L68.4698182,14.0040228 L67.1209697,18.4177175 C65.4450195,18.6803725 63.8393035,19.2787097 62.4,20.1768902 L58.5677576,17.4151783 L55.328,20.5678174 L58.0572121,24.729301 C57.2596264,26.1465283 56.7458052,27.7056751 56.5444848,29.3195435 L51.9810909,30.6940942 L52.5168485,35.1834522 L57.3134545,35.5365478 C57.8929335,37.0683804 58.7641592,38.4731172 59.8787879,39.6728103 L57.9878788,44.086505 L61.769697,46.5770899 L65.2237576,43.0524394 C66.4695894,43.4594852 67.7706594,43.6721542 69.0812121,43.6829672 C69.3396364,43.6829672 69.5980606,43.6829672 69.8501818,43.6829672 L72.5667879,47.8003138 L76.7141818,45.9970043 L75.7876364,41.7850785 C77.3792485,40.7874505 78.7308899,39.4503984 79.7459394,37.8695007 L83.8681212,38.714408 L85.5195152,34.4205136 Z" id="Shape" stroke="#F9F9F9" stroke-width="3.78"></path>
                <path d="M378.295273,96.0735235 C377.99903,95.6952068 377.696485,95.3168902 377.406545,94.9322682 C375.232,91.9940086 360.766545,74.1248502 337.880242,84.8438231 C313.002182,96.4581455 320.187636,123.564536 324.057697,129.094265 C327.927758,134.623994 338.434909,149.006334 352.257455,137.392011 C354.952618,134.612862 356.00172,130.627724 355.024485,126.881113 C353.915152,122.467418 357.785212,119.138231 361.100606,120.796519 C364.416,122.454807 372.162424,126.881113 378.244848,120.796519 C384.176,114.838031 385.896727,105.752126 378.295273,96.0735235 Z" id="Shape" stroke="#FFFFFF" stroke-width="3.78"></path>
                <ellipse id="Oval" stroke="#FFFFFF" stroke-width="3.78" cx="332.907152" cy="120.771298" rx="4.42472727" ry="4.42630528"></ellipse>
                <ellipse id="Oval" stroke="#FFFFFF" stroke-width="3.78" cx="334.010182" cy="103.627247" rx="4.42472727" ry="4.42630528"></ellipse>
                <ellipse id="Oval" stroke="#FFFFFF" stroke-width="3.78" cx="347.278061" cy="94.2197718" rx="4.42472727" ry="4.42630528"></ellipse>
                <ellipse id="Oval" stroke="#FFFFFF" stroke-width="3.78" cx="363.867636" cy="98.0912126" rx="4.42472727" ry="4.42630528"></ellipse>
                <path d="M382.114909,89.2449073 C382.114909,89.2449073 381.560242,82.6054494 385.430303,80.9471612 C389.300364,79.288873 394.254545,78.1791441 395.382788,75.4174322 C396.492121,77.6305849 400.362182,82.0568902 396.492121,90.348331 C395.937455,90.9031954 393.725091,93.6712126 391.512727,94.2197718 C389.85503,96.4329244 386.539636,101.968959 386.539636,101.968959 C386.539636,101.968959 369.395394,129.623909 361.100606,129.623909 C352.805818,129.623909 382.114909,89.2449073 382.114909,89.2449073 Z" id="Shape" stroke="#FFFFFF" stroke-width="3.78" fill="#4AC1D4" fill-rule="nonzero"></path>
                <path d="M353.152485,388.310556 C352.457712,390.14932 352.24084,392.134405 352.522182,394.079886 C352.988606,397.352325 353.612606,397.825221 353.612606,397.825221 C353.612606,397.825221 355.635879,397.667589 355.503515,398.291812 C355.371152,398.916034 328.072727,403.903509 326.200727,404.212468 C324.328727,404.521427 318.410182,405.776177 316.071758,405.776177 C311.212332,405.650102 306.367913,405.180237 301.574788,404.3701 C296.582788,403.436919 278.039273,401.09766 278.039273,401.09766 C278.039273,401.09766 277.106424,400.63107 276.633697,400.782397 C276.16097,400.933723 275.543273,400.940029 274.301576,399.224993 C273.059879,397.509957 273.828848,389.092411 274.768,388.310556 C275.707152,387.528702 278.348121,387.049501 280.535273,386.910785 C282.722424,386.772068 314.817455,382.856491 314.817455,382.856491 C314.817455,382.856491 316.531879,382.856491 318.09503,383.014123 C319.519515,383.152839 347.536485,386.166762 352.194424,386.683795 C352.522182,386.715321 352.824727,386.740542 353.177697,386.746847 C353.456707,386.753024 353.734843,386.780426 354.009697,386.828816 C355.352242,387.093638 355.390061,387.648502 354.085333,388.089872 C353.779846,388.184874 353.468151,388.258612 353.152485,388.310556 Z" id="Shape" stroke="#F9F9F9" stroke-width="3.78"></path>
                <path d="M313.890909,393.922254 C312.784759,396.036365 312.558219,398.502001 313.260606,400.782397 C314.521212,404.3701 316.22303,405.618545 316.22303,405.618545" id="Shape" stroke="#F9F9F9" stroke-width="3.78"></path>
                <path d="M274.515879,388.966305 C277.452985,388.576975 280.434071,388.67283 283.340121,389.250043 C288.634667,390.183224 312.012606,392.989073 312.012606,392.989073 C312.012606,392.989073 315.132606,393.619601 315.59903,394.250128 C316.065455,394.880656 316.229333,393.619601 316.859636,393.619601 C317.489939,393.619601 353.171394,388.316862 353.171394,388.316862" id="Shape" stroke="#F9F9F9" stroke-width="3.78"></path>
                <path d="M274.91297,400.473438 C274.91297,400.473438 271.484121,399.540257 271.484121,400.315806 C271.484121,401.091355 271.332848,408.424394 271.956848,409.515207 C272.580848,410.60602 297.799273,417.157204 297.799273,417.157204 L304.348121,416.84194 L357.804121,411.696833 C357.804121,411.696833 359.518545,411.539201 359.203394,410.763652 C358.715252,409.629228 358.451955,408.410777 358.428121,407.175949 C358.428121,405.618545 358.579394,402.970328 358.579394,402.655064 C358.579394,402.3398 360.293818,401.394009 358.73697,400.940029 C357.180121,400.486049 351.721697,399.382625 351.721697,399.382625" id="Shape" stroke="#F9F9F9" stroke-width="3.78"></path>
                <polyline id="Shape" stroke="#F9F9F9" stroke-width="3.78" points="280.831515 401.633609 296.576485 406.085136 308.369455 405.448302 309.113212 405.366334"></polyline>
                <path d="M358.604606,402.188474 L323.629091,404.70428" id="Shape" stroke="#F9F9F9" stroke-width="3.78"></path>
                <path d="M280.220121,412.428245 C280.220121,412.428245 279.90497,419.490157 280.056242,420.114379 C280.207515,420.738602 280.371394,421.053866 281.461818,421.053866 C282.552242,421.053866 295.177212,428.065335 295.801212,428.380599 C296.992701,428.83769 298.263467,429.05206 299.538909,429.011127 C301.253333,429.011127 362.033455,425.423424 362.033455,425.423424 C362.033455,425.423424 362.499879,425.423424 361.403152,424.332611 C360.306424,423.241797 360.627879,418.405649 360.936727,417.472468 C361.245576,416.539287 362.027152,414.824251 362.651152,414.508987 C363.275152,414.193723 360.936727,412.951583 359.846303,412.617404 C359.132504,412.397233 358.45187,412.081187 357.82303,411.677917" id="Shape" stroke="#F9F9F9" stroke-width="3.78"></path>
                <path d="M304.373333,416.84194 L362.657455,414.502682" id="Shape" stroke="#F9F9F9" stroke-width="3.78"></path>
                <path d="M314.464485,428.355378 L294.395636,430.719857 C294.395636,430.719857 280.52897,424.483937 279.268364,424.326305 C278.007758,424.168673 275.057939,423.235492 274.900364,423.695777 C274.742788,424.156063 273.639758,430.398288 274.749091,432.428588 C275.858424,434.458887 276.305939,434.320171 277.238788,434.610214 C278.171636,434.900257 293.75903,441.312725 294.225455,441.627989 C294.691879,441.943252 323.061818,438.664508 325.400242,438.506876 C327.738667,438.349244 354.696727,435.234437 354.696727,435.234437 C354.696727,435.234437 356.587636,434.603909 354.230303,434.29495 C354.230303,434.29495 352.339394,433.519401 354.142061,425.959372" id="Shape" stroke="#F9F9F9" stroke-width="3.78"></path>
                <path d="M284.014545,422.352753 C284.014545,422.352753 275.228121,422.453638 274.91297,423.702083" id="Shape" stroke="#F9F9F9" stroke-width="3.78"></path>
                <path d="M387.088,223.099658 L390.409697,223.080742" id="Shape" stroke="#FFFFFF" stroke-width="3.78"></path>
                <path d="M397.242182,223.036605 L405.335273,222.992468 C405.335273,222.992468 415.287758,225.861369 415.287758,209.820742 L415.287758,121.326163 C415.287758,121.326163 416.945455,113.028417 408.65697,113.028417 L390.012606,113.028417" id="Shape" stroke="#FFFFFF" stroke-width="3.78" stroke-dasharray="6.835500240325928"></path>
                <path d="M386.596364,113.028417 L383.28097,113.028417" id="Shape" stroke="#FFFFFF" stroke-width="3.78"></path>
                <path d="M35.8138182,228.94465 L14.4213333,228.94465 C14.4213333,228.94465 -0.504242424,233.055692 0.0504242424,216.4602 C0.605090909,199.864708 0.0504242424,83.7151783 0.0504242424,83.7151783 C0.0504242424,83.7151783 -1.35515152,60.9026819 10.9546667,61.5205991" id="Shape" stroke="#FFFFFF" stroke-width="3.78" stroke-dasharray="8.29079990386963"></path>
                <path d="M191.164606,58.2103281 L172.003394,58.2103281 C172.003394,58.2103281 159.290182,62.1385164 159.290182,40.5555492 C159.290182,18.972582 152.098424,22.8566334 143.255273,22.8566334 L84.0950303,22.8566334" id="Shape" stroke="#FFFFFF" stroke-width="3.78" stroke-dasharray="8.29079990386963"></path>
                <path d="M284.953697,168.817518 C284.953697,168.817518 290.626424,168.817518 290.626424,175.43806" id="Shape" stroke="#FFFFFF" stroke-width="2.835"></path>
                <path d="M296.299152,168.817518 C296.299152,168.817518 290.626424,168.817518 290.626424,175.43806" id="Shape" stroke="#FFFFFF" stroke-width="2.835"></path>
                <path d="M284.953697,168.817518 C284.953697,168.817518 290.626424,168.817518 290.626424,162.196976" id="Shape" stroke="#FFFFFF" stroke-width="2.835"></path>
                <path d="M296.299152,168.817518 C296.299152,168.817518 290.626424,168.817518 290.626424,162.196976" id="Shape" stroke="#FFFFFF" stroke-width="2.835"></path>
                <path d="M358.068848,375.000114 C358.068848,375.000114 363.741576,375.000114 363.741576,381.620656" id="Shape" stroke="#FFFFFF" stroke-width="2.835"></path>
                <path d="M369.414303,375.000114 C369.414303,375.000114 363.741576,375.000114 363.741576,381.620656" id="Shape" stroke="#FFFFFF" stroke-width="2.835"></path>
                <path d="M358.068848,375.000114 C358.068848,375.000114 363.741576,375.000114 363.741576,368.379572" id="Shape" stroke="#FFFFFF" stroke-width="2.835"></path>
                <path d="M369.414303,375.000114 C369.414303,375.000114 363.741576,375.000114 363.741576,368.379572" id="Shape" stroke="#FFFFFF" stroke-width="2.835"></path>
                <path d="M51.6596364,271.751184 L51.6596364,280.420942" id="Shape" stroke="#FFFFFF" stroke-width="3.78" stroke-dasharray="12.07079973220825"></path>
                <path d="M55.9961212,276.08291 L47.3294545,276.08291" id="Shape" stroke="#FFFFFF" stroke-width="3.78" stroke-dasharray="12.07079973220825"></path>
                <path d="M96.3229091,0 L90.1963636,6.12873039" id="Shape" stroke="#FFFFFF" stroke-width="3.78" stroke-dasharray="12.07079973220825"></path>
                <path d="M96.3229091,6.12873039 L90.1963636,0" id="Shape" stroke="#FFFFFF" stroke-width="3.78" stroke-dasharray="12.07079973220825"></path>
                <ellipse id="Oval" stroke="#FFFFFF" stroke-width="3.78" cx="37.2446061" cy="267.495121" rx="4.41212121" ry="4.41369472"></ellipse>
                <path d="M373.114182,67.4601712 L373.114182,76.1299287" id="Shape" stroke="#FFFFFF" stroke-width="3.78" stroke-dasharray="12.07079973220825"></path>
                <path d="M377.450667,71.7918973 L368.784,71.7918973" id="Shape" stroke="#FFFFFF" stroke-width="3.78" stroke-dasharray="12.07079973220825"></path>
                <ellipse id="Oval" stroke="#FFFFFF" stroke-width="3.78" cx="407.862788" cy="75.1841369" rx="4.41212121" ry="4.41369472"></ellipse>
                <ellipse id="Oval" stroke="#FFFFFF" stroke-width="3.78" cx="107.838545" cy="12.1313552" rx="4.41212121" ry="4.41369472"></ellipse>
            </g>
        </g>
    </g>
</svg>