<svg xmlns="http://www.w3.org/2000/svg" viewBox="0 0 287 286.5"><defs><style>.cls-1{fill:#4ac1d4;}.cls-1,.cls-2{stroke:#4ac1d4;stroke-miterlimit:10;}.cls-2,.cls-3{fill:#fff;}.cls-2{stroke-width:4px;}</style></defs><title>Asset 3</title><g id="Layer_2" data-name="Layer 2"><g id="Layer_3" data-name="Layer 3"><path class="cls-1" d="M100.73,152.05l1.53-.63a59.92,59.92,0,1,1,73.85.35l.54.28s53.67,20.17,70.62,89.84a143,143,0,1,0-212.34-5.33C52.34,171.19,100.73,152.05,100.73,152.05Z"/><path class="cls-2" d="M247.27,239.89c-17-69.67-70.62-89.84-70.62-89.84l-.54-.28a59.93,59.93,0,1,0-73.85-.35l-1.53.63s-48.39,19.14-65.8,84.51a143,143,0,0,0,212.34,5.33Z"/><path class="cls-3" d="M114.92,167s-35.67,5.35-62.42-17.84c5.35-3.57,25-21.4,26.75-62.42s19.62-66,57.08-67.78c5.35,0,17.83-1.78,23.18,7.14,5.35,0,33.89,0,37.46,35.67s5.35,69.56,30.31,85.61c-7.13,7.13-25,21.4-62.42,19.62S114.92,167,114.92,167Z"/></g></g></svg>