<?xml version="1.0" encoding="UTF-8"?>
<svg width="25px" height="30px" viewBox="0 0 25 30" version="1.1" xmlns="http://www.w3.org/2000/svg" xmlns:xlink="http://www.w3.org/1999/xlink">
    <!-- Generator: Sketch 49 (51002) - http://www.bohemiancoding.com/sketch -->
    <title>internet (1)</title>
    <desc>Created with Sketch.</desc>
    <defs></defs>
    <g id="Page-1" stroke="none" stroke-width="1" fill="none" fill-rule="evenodd">
        <g id="detail-copy-7" transform="translate(-316.000000, -485.000000)" fill="#3C3C3C" fill-rule="nonzero">
            <g id="internet-(1)" transform="translate(316.000000, 485.000000)">
                <path d="M22.3888141,27.4736219 L13.8332999,27.4736219 L13.8332999,26.8420274 C13.8332999,26.4929244 13.5599621,26.2104328 13.2221713,26.2104328 L12.6110427,26.2104328 L12.6110427,24.7887974 C13.8259666,24.2133341 14.9759792,21.9838948 15.6511025,18.7654094 C15.690519,18.5785422 15.6463473,18.3836225 15.5305611,18.235005 C15.4135718,18.0863876 15.2393483,18 15.0542967,18 L8.94564597,18 C8.76065166,18 8.58637087,18.0863284 8.46938159,18.235005 C8.35359543,18.3836225 8.30942367,18.5785422 8.34884024,18.7654094 C9.02396348,21.9838948 10.1739761,24.2133341 11.3889,24.7887974 L11.3889,26.210492 L10.7777714,26.210492 C10.4399806,26.210492 10.1666428,26.4929836 10.1666428,26.8420866 L10.1666428,27.4736811 L1.61112862,27.4736811 C1.27333783,27.4736219 1,27.7561134 1,28.1052164 C1,28.4543194 1.27333783,28.7368109 1.61112862,28.7368109 L10.1666428,28.7368109 L10.1666428,29.3684055 C10.1666428,29.7175084 10.4399806,30 10.7777714,30 L13.2222286,30 C13.5600194,30 13.8333572,29.7175084 13.8333572,29.3684055 L13.8333572,28.7368109 L22.3888714,28.7368109 C22.7266622,28.7368109 23,28.4543194 23,28.1052164 C22.9999427,27.7561134 22.7266049,27.4736219 22.3888141,27.4736219 Z" id="Shape"></path>
                <path d="M16.1508227,23.7935873 C16.2675571,23.9272057 16.4337466,24 16.603501,24 C16.6730437,24 16.7437747,23.9880872 16.8109974,23.9624288 C19.3266439,23.0287607 21.4922003,21.2431535 22.9091965,18.9330953 C23.0247427,18.7451819 23.0306275,18.5077271 22.9233427,18.3138 C22.8172463,18.1199301 22.6156347,18 22.3963686,18 L18.1359868,18 C17.847178,18 17.5984313,18.2070427 17.5430348,18.4945543 C17.1928881,20.3195655 16.6954513,21.8718989 16.0671338,23.1092296 C15.9527759,23.3335688 15.9870097,23.6050439 16.1508227,23.7935873 Z" id="Shape"></path>
                <path d="M9.12857191,6.76321441 C9.24028631,6.91295788 9.40665434,7 9.58336224,7 L15.4166378,7 C15.593291,7 15.7597137,6.91301754 15.8714281,6.76321441 C15.9819936,6.61347095 16.0241737,6.41707433 15.9865344,6.22879131 C15.2342402,2.444756 13.8653831,0 12.4999726,0 C11.1345622,0 9.7657051,2.444756 9.01346558,6.22873165 C8.97582625,6.41707433 9.01800637,6.61341129 9.12857191,6.76321441 Z" id="Shape"></path>
                <path d="M16.1399213,17 C16.4663908,17 16.7400659,16.7557957 16.7789988,16.4318574 C16.9259311,15.1706376 17,13.8478846 17,12.5 C17,11.1521154 16.9259311,9.82936237 16.7789988,8.56814255 C16.7400659,8.24420427 16.4663305,8 16.1399213,8 L8.86007875,8 C8.53360922,8 8.25993411,8.24420427 8.22100125,8.56814255 C8.07406887,9.82936237 8,11.1521154 8,12.5 C8,13.8478846 8.07406887,15.1706376 8.22100125,16.4318574 C8.25993411,16.7557957 8.53366949,17 8.86007875,17 L16.1399213,17 Z" id="Shape"></path>
                <path d="M6.84176904,16.7865322 C6.95886548,16.6503275 7.01558859,16.4695247 6.99629462,16.288059 C6.86471322,15.0281048 6.79831416,13.7536864 6.79831416,12.5 C6.79831416,11.2463136 6.86471322,9.97189521 6.99629462,8.71194102 C7.01558859,8.53053558 6.95886548,8.34973281 6.84176904,8.2134678 C6.72467261,8.07786572 6.55687881,8 6.38184253,8 L1.22519603,8 C0.959657707,8 0.723031367,8.17706617 0.638555068,8.43947125 C0.214840957,9.7634899 0,11.129515 0,12.5 C0,13.870485 0.214840957,15.2365101 0.638555068,16.5605287 C0.723031367,16.8229338 0.959657707,17 1.22519603,17 L6.38184253,17 C6.55687881,17 6.72467261,16.9221343 6.84176904,16.7865322 Z" id="Shape"></path>
                <path d="M2.60363,7 L6.86400209,7 C7.15281018,7 7.40155634,6.79296165 7.45695272,6.50545612 C7.80709859,4.68048323 8.30453432,3.12818243 8.93285036,1.89087773 C9.04720795,1.66654324 9.01303082,1.39513114 8.84916165,1.20659165 C8.68529248,1.01868216 8.42121188,0.95007028 8.18898844,1.03775374 C5.67334771,1.97140219 3.50779626,3.75697193 2.09080325,6.06698154 C1.97525738,6.25489103 1.96937257,6.49234082 2.07665708,6.68626388 C2.18275332,6.88012966 2.38436445,7 2.60363,7 Z" id="Shape"></path>
                <path d="M24.3614449,8.43947125 C24.2769686,8.17706617 24.0403423,8 23.774804,8 L18.6181575,8 C18.4431212,8 18.2753274,8.07786572 18.158231,8.2134678 C18.0411345,8.34967255 17.9844114,8.53047531 18.0037054,8.71194102 C18.1352868,9.97189521 18.2016858,11.2463136 18.2016858,12.5 C18.2016858,13.7536864 18.1352868,15.0281048 18.0037054,16.288059 C17.9844114,16.4694644 18.0411345,16.6502672 18.158231,16.7865322 C18.2753274,16.9221343 18.4431212,17 18.6181575,17 L23.774804,17 C24.0403423,17 24.2769686,16.8229338 24.3614449,16.5605287 C24.785159,15.2365101 25,13.870485 25,12.5 C24.9999421,11.1295753 24.7851011,9.7634899 24.3614449,8.43947125 Z" id="Shape"></path>
                <path d="M6.8639455,18 L2.60363,18 C2.38436445,18 2.18275332,18.1199301 2.07665708,18.3138 C1.96937257,18.5076698 1.97525738,18.7451246 2.09080325,18.9330953 C3.50779626,21.2430962 5.67334771,23.0287034 8.18898844,23.9624288 C8.25621102,23.9880872 8.32694184,24 8.39648439,24 C8.56623836,24 8.73248409,23.9272057 8.84916165,23.7935873 C9.01303082,23.6050439 9.04720795,23.3336261 8.93285036,23.1092869 C8.30453432,21.8719562 7.807042,20.3196228 7.45695272,18.4946115 C7.40149976,18.2070427 7.15281018,18 6.8639455,18 Z" id="Shape"></path>
                <path d="M17.5430473,6.50546084 C17.5984437,6.7930209 17.8471898,7 18.1359979,7 L22.39637,7 C22.6156355,7 22.8172467,6.88007354 22.9233429,6.6862096 C23.0306274,6.49234567 23.0247426,6.25489815 22.9091968,6.06693317 C21.4922037,3.75700288 19.3266523,1.97145019 16.8110116,1.03775338 C16.5811081,0.950070756 16.3158958,1.01868198 16.1508383,1.20658968 C15.9869692,1.39512737 15.952792,1.66653687 16.0671496,1.89086923 C16.6954091,3.12821939 17.1929014,4.68050537 17.5430473,6.50546084 Z" id="Shape"></path>
            </g>
        </g>
    </g>
</svg>