<?xml version="1.0" encoding="UTF-8"?>
<svg width="273px" height="50px" viewBox="0 0 273 50" version="1.1" xmlns="http://www.w3.org/2000/svg" xmlns:xlink="http://www.w3.org/1999/xlink">
    <!-- Generator: Sketch 49 (51002) - http://www.bohemiancoding.com/sketch -->
    <title>Group 34</title>
    <desc>Created with Sketch.</desc>
    <defs></defs>
    <g id="Page-1" stroke="none" stroke-width="1" fill="none" fill-rule="evenodd">
        <g id="Group-34">
            <rect id="Rectangle-7" fill="#FFFFFF" x="0" y="0" width="273" height="50" rx="8"></rect>
            <text id="Log-in-met-facebook" font-family="BrandonGrotesque-Black, Brandon Grotesque" font-size="26" font-weight="700" fill="#3C3C3C">
                <tspan x="50" y="34">Log in met facebook</tspan>
            </text>
            <path d="M28.664967,38.5743162 L28.664967,24.7871321 L32.5007135,24.7871321 L33.0349982,19.8644235 L28.7099968,19.8644235 L28.7099968,17.431723 C28.6792556,16.8129256 28.8065013,16.3542019 29.0917338,16.0555517 C29.3769664,15.7569015 29.8864751,15.6600927 30.6202601,15.7651252 L33.0349982,15.7651252 L33.0349982,11.0005701 L28.805705,11.0005701 C26.8826113,10.9827539 25.5172014,11.382542 24.7094753,12.1999346 C23.4978861,13.4260234 22.8778624,14.9953435 22.8207293,17.9338016 C22.7635962,20.8722597 22.9422731,19.2296785 22.8847164,19.6554673 C22.8271597,20.0812561 22.575966,19.8783822 21.7051194,19.8644235 C21.124555,19.8551178 20.5561819,19.8504649 20,19.8504649 L20,24.7871321 L22.8207293,24.7871321 L22.7635962,38.5743162 L28.664967,38.5743162 Z" id="Path-5" fill="#3C3C3C"></path>
        </g>
    </g>
</svg>