<?xml version="1.0" encoding="UTF-8"?>
<svg width="60px" height="46px" viewBox="0 0 60 46" version="1.1" xmlns="http://www.w3.org/2000/svg" xmlns:xlink="http://www.w3.org/1999/xlink">
    <!-- Generator: Sketch 49 (51002) - http://www.bohemiancoding.com/sketch -->
    <title>logo-osoc-color</title>
    <desc>Created with Sketch.</desc>
    <defs></defs>
    <g id="Page-1" stroke="none" stroke-width="1" fill="none" fill-rule="evenodd">
        <g id="Desktop" transform="translate(-14.000000, -629.000000)" fill="#FFFFFF" fill-rule="nonzero">
            <g id="logo-osoc-color" transform="translate(14.000000, 629.000000)">
                <path d="M54.3767511,32.2106988 C52.5976626,33.5311161 50.0958193,33.1558396 48.7893012,31.3767511 C47.4688839,29.5976626 47.8441604,27.0958193 49.6232489,25.7893012 C51.4023374,24.4688839 53.9041807,24.8441604 55.2106988,26.6232489 C56.5311161,28.3884383 56.1558396,30.8902816 54.3767511,32.2106988 Z" id="Shape"></path>
                <path d="M52.7322684,20.3821724 C51.5233227,20.7981351 50.2440895,21.0128255 48.9507987,20.9994073 C47.5309904,20.9994073 46.1392971,20.7310443 44.8178914,20.2077364 C43.4543131,19.6710103 42.2313099,18.8927575 41.1910543,17.8863962 C40.1507987,16.8800348 39.3354633,15.7126556 38.7872204,14.3976767 C38.2530351,13.1363705 38,11.8079735 38,10.4527401 C38,9.09750682 38.2811502,7.76910981 38.829393,6.50780355 C39.3916933,5.20624284 40.2070288,4.03886365 41.2613419,3.04592043 C42.315655,2.0529772 43.5386581,1.27472441 44.9162939,0.751416493 C46.2376997,0.24152673 47.629393,0 49.0492013,0 C50.4690096,0 51.8607029,0.268363033 53.1821086,0.791670948 C54.5456869,1.32839701 55.7686901,2.10664981 56.8089457,3.11301118 L52.3948882,7.28605635 C51.4952077,6.41387649 50.3003195,5.93082303 49.0210863,5.93082303 C47.741853,5.93082303 46.5469649,6.40045834 45.6332268,7.25922004 C44.7194888,8.11798175 44.2134185,9.25852464 44.2134185,10.4795764 C44.2134185,11.7006282 44.7054313,12.8411711 45.6051118,13.713351 C46.5047923,14.5855308 47.6996805,15.0685843 48.9789137,15.0685843 C50.258147,15.0685843 51.4530351,14.598949 52.3667732,13.7401873 C53.2805112,12.8814256 53.7865815,11.7408827 53.7865815,10.5198309 L60,10.5466672 C60,11.9019005 59.7188498,13.2302975 59.170607,14.4916038 C58.6083067,15.7931645 57.7929712,16.9605437 56.7386581,17.9534869 C55.684345,18.9464301 54.4613419,19.7246829 53.0837061,20.2479908 C52.971246,20.3016635 52.8587859,20.3419179 52.7322684,20.3821724 Z" id="Shape"></path>
                <path d="M37.7550151,45.343724 C37.3790187,45.4825991 36.9890965,45.5936992 36.5991743,45.6909118 C35.2205209,46.0242122 33.80009,46.0936497 32.3796591,45.8714495 C30.9731541,45.6631368 29.636278,45.1909613 28.4108082,44.4688106 C27.1435611,43.7188848 26.0434235,42.7328713 25.1660985,41.5524326 C23.2582649,38.9693549 22.5619753,35.705789 23.2721907,32.5810983 L29.4970201,33.9976248 C29.2045784,35.3030511 29.4830943,36.677915 30.2907902,37.7611411 C31.0288573,38.7471547 32.1011433,39.3998678 33.3266131,39.5804055 C34.5520828,39.7609432 35.7636268,39.4554179 36.7662838,38.7193796 C37.7550151,37.9833414 38.4095274,36.9140028 38.5905627,35.6919015 C38.771598,34.4698002 38.4652306,33.2615865 37.7271635,32.2616855 C37.7132377,32.2339104 37.6853862,32.2200229 37.6714604,32.1922479 C37.0726513,31.4284346 36.2371037,30.8034965 33.4797968,30.1368958 C28.9956915,29.0397821 25.6813529,25.040178 25.3332081,20.4295233 C25.3332081,20.3600857 25.3192823,20.2906481 25.3192823,20.2212105 C25.1939501,18.1241959 25.6813529,16.0410687 26.6979357,14.2218044 C27.7005928,12.4442025 29.162801,10.9860135 30.9453025,10 L34.0507543,15.5550057 C33.2987615,15.9716312 32.6860266,16.5826818 32.2682528,17.3326076 C31.8365532,18.0964209 31.6415921,18.9713343 31.6833695,19.8462477 C31.6833695,19.8740227 31.6833695,19.9017977 31.6833695,19.9295727 C31.8226274,21.8460497 33.1455777,23.6792016 35.2483724,24.2485897 C37.2815382,24.8040903 38.437379,24.9568529 39.8995872,25.7623288 C41.2364633,26.4844795 42.0720109,27.3871679 42.7125973,28.3037439 C42.7543747,28.3592939 42.7961521,28.414844 42.8379295,28.4703941 C43.7152544,29.6647203 44.3419151,30.9840342 44.6900599,32.4144481 C45.0242789,33.789312 45.0939079,35.2058385 44.8710952,36.622365 C44.6622083,38.0250039 44.1887313,39.3582053 43.4645901,40.5803066 C42.7125973,41.8440704 41.723866,42.941184 40.5401737,43.8160974 C39.6907003,44.4826981 38.7437464,44.9826486 37.7550151,45.343724 Z" id="Shape"></path>
                <path d="M18.9344131,16.2619431 C17.2598835,14.01097 14.8167175,12.5423474 12.0578615,12.1168586 C10.3147037,11.8560751 8.57154591,12.0345059 6.951919,12.6247001 C6.00484902,12.9678362 5.098956,13.4482268 4.26169123,14.0658718 C2.01068433,15.7403761 0.542039582,18.1835054 0.116544375,20.9423199 C-0.295225181,23.7148599 0.391057412,26.4736744 2.06558694,28.7383729 C3.74011646,31.0030714 6.18328249,32.4579686 8.94213851,32.8834574 C11.7147202,33.2952207 14.4735762,32.6089485 16.7383088,30.9344441 C18.9893157,29.2599398 20.4579604,26.8168105 20.8834556,24.057996 C21.2952252,21.2854561 20.6089426,18.5129161 18.9344131,16.2619431 Z" id="Shape"></path>
            </g>
        </g>
    </g>
</svg>