<?xml version="1.0" encoding="UTF-8"?>
<svg width="51px" height="51px" viewBox="0 0 51 51" version="1.1" xmlns="http://www.w3.org/2000/svg" xmlns:xlink="http://www.w3.org/1999/xlink">
    <!-- Generator: Sketch 49 (51002) - http://www.bohemiancoding.com/sketch -->
    <title>Group 2</title>
    <desc>Created with Sketch.</desc>
    <defs></defs>
    <g id="Page-1" stroke="none" stroke-width="1" fill="none" fill-rule="evenodd">
        <g id="Desktop" transform="translate(-769.000000, -614.000000)">
            <g id="Group-2" transform="translate(769.000000, 614.000000)">
                <g id="Group-Copy" fill="#FFFFFF">
                    <circle id="Oval" cx="25.5" cy="25.5" r="25.5"></circle>
                </g>
                <g id="envelope" transform="translate(8.000000, 12.000000)" fill="#4A4A4A" fill-rule="nonzero">
                    <path d="M29.8493515,0 L4.15766362,0 C1.86426541,0 0,1.87330071 0,4.17781403 L0,21.822186 C0,24.1266993 1.86426541,26 4.15766362,26 L29.8423165,26 C32.1357147,26 33.9999802,24.1266993 33.9999802,21.822186 L33.9999802,4.18488309 C34.0070151,1.88036977 32.1427497,0 29.8493515,0 Z M32.1075749,21.822186 C32.1075749,23.0734095 31.0945401,24.091354 29.8493515,24.091354 L4.15766362,24.091354 C2.91247502,24.091354 1.89944023,23.0734095 1.89944023,21.822186 L1.89944023,4.18488309 C1.89944023,2.9336596 2.91247502,1.91571506 4.15766362,1.91571506 L29.8423165,1.91571506 C31.0875051,1.91571506 32.1005399,2.9336596 32.1005399,4.18488309 L32.1005399,21.822186 L32.1075749,21.822186 Z" id="Shape"></path>
                    <path d="M21.4093857,13.2728283 L29.6720199,5.69135632 C30.0564911,5.33373972 30.091443,4.72579149 29.7419238,4.32526089 C29.3924046,3.93188262 28.7982219,3.89612096 28.4067604,4.25373757 L17.012434,14.7175994 L14.7894918,12.6863371 C14.7825014,12.6791848 14.775511,12.6720324 14.775511,12.6648801 C14.7265783,12.6148138 14.6776456,12.5718998 14.6217226,12.5289858 L5.57616529,4.24658524 C5.18470377,3.88896863 4.59052111,3.92473029 4.24100189,4.32526089 C3.89148268,4.72579149 3.9264346,5.33373972 4.31789612,5.69135632 L12.6783957,13.3371993 L4.35284804,21.3120496 C3.97536729,21.6768186 3.95439614,22.2847668 4.31090573,22.6781451 C4.49964611,22.8784104 4.75129994,22.9856953 5.00295378,22.9856953 C5.23363646,22.9856953 5.46431914,22.8998674 5.64606913,22.7282114 L14.0974437,14.6389238 L16.3902898,16.7345571 C16.5720398,16.8990607 16.7957321,16.9777364 17.0194244,16.9777364 C17.2431167,16.9777364 17.4737994,16.8919084 17.648559,16.7274047 L20.0043185,14.5674005 L28.4067604,22.7353637 C28.5885104,22.914172 28.8261834,23 29.0568661,23 C29.30852,23 29.5531834,22.8998674 29.7419238,22.6996021 C30.0984334,22.3133761 30.0844526,21.6982756 29.7069719,21.3335066 L21.4093857,13.2728283 Z" id="Shape"></path>
                </g>
            </g>
        </g>
    </g>
</svg>