<?xml version="1.0" encoding="UTF-8"?>
<svg width="88px" height="49px" viewBox="0 0 88 49" version="1.1" xmlns="http://www.w3.org/2000/svg" xmlns:xlink="http://www.w3.org/1999/xlink">
    <!-- Generator: Sketch 49 (51002) - http://www.bohemiancoding.com/sketch -->
    <title>openthebox-logo</title>
    <desc>Created with Sketch.</desc>
    <defs></defs>
    <g id="Page-1" stroke="none" stroke-width="1" fill="none" fill-rule="evenodd">
        <g id="Desktop" transform="translate(-366.000000, -616.000000)" fill="#FFFFFF" fill-rule="nonzero">
            <g id="openthebox-logo" transform="translate(366.000000, 616.000000)">
                <g id="Group" transform="translate(26.000000, 0.000000)">
                    <g transform="translate(0.839937, 0.489451)" id="Shape">
                        <g transform="translate(2.020602, 0.000000)">
                            <polygon points="16.011252 4.46540084 20.222187 0.0481012658 31.2627575 2.47721519 26.8093502 7.76033755"></polygon>
                            <polygon points="15.259588 4.46540084 11.0567353 0.0481012658 0.0161648177 2.47721519 4.46957211 7.76033755"></polygon>
                        </g>
                        <g transform="translate(0.000000, 7.696203)">
                            <polygon points="18.0318542 4.36118143 24.2472266 8.77848101 35.2877971 3.86413502 28.8299525 0.0641350211"></polygon>
                            <polygon points="17.2801902 4.36118143 11.0729002 8.77848101 0.0242472266 3.86413502 6.49017433 0.0641350211"></polygon>
                        </g>
                        <g transform="translate(7.031696, 12.105485)">
                            <polygon points="0 3.91223629 0 12.3780591 10.3697306 16.8594937 10.2808241 0.0160337553 4.67971474 6.40548523"></polygon>
                            <polygon points="21.2567353 3.91223629 21.2567353 12.3780591 10.8789223 16.8594937 10.9678288 0.0160337553 16.5689382 6.40548523"></polygon>
                        </g>
                    </g>
                </g>
                <g id="Group" transform="translate(0.000000, 38.000000)">
                    <path d="M6.81939616,5.53333333 C6.81939616,7.49166667 5.47483989,8.79166667 3.4137237,8.79166667 C1.3526075,8.78333333 0,7.49166667 0,5.53333333 C0,3.55833333 1.3526075,2.275 3.4137237,2.275 C5.47483989,2.275 6.81939616,3.55833333 6.81939616,5.53333333 Z M2.30265325,5.55833333 C2.30265325,6.40833333 2.74547118,6.96666667 3.42177493,6.96666667 C4.09002745,6.96666667 4.52479414,6.40833333 4.52479414,5.55833333 C4.52479414,4.71666667 4.08197621,4.15 3.42177493,4.15 C2.73741995,4.14166667 2.30265325,4.71666667 2.30265325,5.55833333 Z" id="Shape"></path>
                    <path d="M14.5727356,5.56666667 C14.5727356,7.51666667 13.4777676,8.78333333 11.7870082,8.78333333 C11.0623971,8.78333333 10.4666057,8.49166667 10.0479414,7.96666667 L10.0479414,10.9666667 L7.77749314,10.9666667 L7.77749314,2.35833333 L10.0559927,2.35833333 L10.0559927,3.09166667 C10.4585544,2.56666667 11.0462946,2.275 11.7387008,2.275 C13.4455627,2.275 14.5727356,3.58333333 14.5727356,5.56666667 Z M12.2781336,5.50833333 C12.2781336,4.66666667 11.8353156,4.1 11.1590119,4.1 C10.5068618,4.1 10.0559927,4.675 10.0559927,5.50833333 C10.0559927,6.34166667 10.5068618,6.91666667 11.1590119,6.91666667 C11.8353156,6.91666667 12.2781336,6.35 12.2781336,5.50833333 Z" id="Shape"></path>
                    <path d="M21.4243367,6.1 L17.3021043,6.1 C17.4792315,6.70833333 17.9139982,7.04166667 18.4936871,7.04166667 C18.9767612,7.04166667 19.4437328,6.81666667 19.8462946,6.43333333 L21.0298262,7.63333333 C20.3857274,8.36666667 19.4598353,8.775 18.3004575,8.775 C16.2473925,8.775 14.9994511,7.49166667 14.9994511,5.54166667 C14.9994511,3.55833333 16.2956999,2.26666667 18.2360476,2.26666667 C20.3937786,2.275 21.5612077,3.76666667 21.4243367,6.1 Z M18.2602013,3.875 C17.7207685,3.875 17.3665142,4.30833333 17.2537969,4.95 L19.1780421,4.95 C19.1941446,4.31666667 18.8157365,3.875 18.2602013,3.875 Z" id="Shape"></path>
                    <path d="M28.7751144,4.68333333 L28.7751144,8.70833333 L26.4966148,8.70833333 L26.4966148,5.35833333 C26.4966148,4.725 26.1504117,4.33333333 25.6190302,4.33333333 C24.9990851,4.34166667 24.6126258,4.85 24.6126258,5.56666667 L24.6126258,8.70833333 L22.3341263,8.70833333 L22.3341263,2.35833333 L24.6126258,2.35833333 L24.6126258,3.34166667 C25.0393413,2.64166667 25.7075938,2.26666667 26.5610247,2.26666667 C27.873376,2.26666667 28.7751144,3.20833333 28.7751144,4.68333333 Z" id="Shape"></path>
                    <path d="M34.1774931,8.4 C33.7507777,8.65833333 33.0986276,8.80833333 32.4786825,8.80833333 C31.1743824,8.81666667 30.2887466,8.04166667 30.2887466,6.71666667 L30.2887466,4.18333333 L29.4433669,4.18333333 L29.4433669,2.675 L30.2887466,2.675 L30.2887466,0.916666667 L32.5511436,0.916666667 L32.5511436,2.675 L34.0647758,2.675 L34.0647758,4.18333333 L32.5511436,4.18333333 L32.5511436,6.35 C32.5511436,6.75833333 32.7524245,6.95833333 33.0664227,6.95833333 C33.2435499,6.95833333 33.4931382,6.875 33.7668801,6.775 L34.1774931,8.4 Z" id="Shape"></path>
                    <path d="M41.536322,4.68333333 L41.536322,8.70833333 L39.2578225,8.70833333 L39.2578225,5.35833333 C39.2578225,4.725 38.9196706,4.33333333 38.3802379,4.33333333 C37.7602928,4.34166667 37.3738335,4.85 37.3738335,5.56666667 L37.3738335,8.70833333 L35.1033852,8.70833333 L35.1033852,0.05 L37.3818847,0.05 L37.3818847,3.34166667 C37.8086002,2.64166667 38.4768527,2.26666667 39.3302836,2.26666667 C40.6426349,2.26666667 41.536322,3.20833333 41.536322,4.68333333 Z" id="Shape"></path>
                    <path d="M48.6938701,6.1 L44.5716377,6.1 C44.7487649,6.70833333 45.1835316,7.04166667 45.7632205,7.04166667 C46.2462946,7.04166667 46.7132662,6.81666667 47.115828,6.43333333 L48.2993596,7.63333333 C47.6552608,8.36666667 46.7293687,8.775 45.5699909,8.775 C43.5169259,8.775 42.2689844,7.49166667 42.2689844,5.54166667 C42.2689844,3.55833333 43.5652333,2.26666667 45.505581,2.26666667 C47.6552608,2.275 48.8307411,3.76666667 48.6938701,6.1 Z M45.5297347,3.875 C44.9903019,3.875 44.6360476,4.30833333 44.5233303,4.95 L46.4475755,4.95 C46.463678,4.31666667 46.0772187,3.875 45.5297347,3.875 Z" id="Shape"></path>
                    <path d="M56.463312,5.56666667 C56.463312,7.51666667 55.368344,8.78333333 53.6775846,8.78333333 C52.9529735,8.78333333 52.3571821,8.49166667 51.9385178,7.96666667 L51.9385178,8.7 L49.6600183,8.7 L49.6600183,0.05 L51.9385178,0.05 L51.9385178,3.09166667 C52.3410796,2.56666667 52.9288198,2.275 53.621226,2.275 C55.3361391,2.275 56.463312,3.58333333 56.463312,5.56666667 Z M54.1606587,5.50833333 C54.1606587,4.66666667 53.7178408,4.1 53.0415371,4.1 C52.389387,4.1 51.9385178,4.675 51.9385178,5.50833333 C51.9385178,6.34166667 52.389387,6.91666667 53.0415371,6.91666667 C53.7178408,6.91666667 54.1606587,6.35 54.1606587,5.50833333 Z" id="Shape"></path>
                    <path d="M63.7094236,5.53333333 C63.7094236,7.49166667 62.3648673,8.79166667 60.3037511,8.79166667 C58.2426349,8.79166667 56.8900274,7.5 56.8900274,5.53333333 C56.8900274,3.55833333 58.2426349,2.275 60.3037511,2.275 C62.3648673,2.275 63.7094236,3.55833333 63.7094236,5.53333333 Z M59.1846295,5.55833333 C59.1846295,6.40833333 59.6274474,6.96666667 60.3037511,6.96666667 C60.9720037,6.96666667 61.4067704,6.40833333 61.4067704,5.55833333 C61.4067704,4.71666667 60.9639524,4.15 60.3037511,4.15 C59.6274474,4.14166667 59.1846295,4.71666667 59.1846295,5.55833333 Z" id="Shape"></path>
                    <polygon id="Shape" points="66.3099726 2.35833333 67.1553522 4 68.105398 2.35833333 70.5851784 2.35833333 68.6689844 5.45 70.7220494 8.70833333 68.105398 8.70833333 67.1553522 6.90833333 66.0764867 8.70833333 63.5725526 8.70833333 65.6256176 5.46666667 63.7013724 2.36666667 66.3099726 2.36666667"></polygon>
                    <path d="M73.2179323,7.69166667 C73.2179323,8.34166667 72.7751144,8.8 72.147118,8.8 C71.5271729,8.8 71.084355,8.34166667 71.084355,7.69166667 C71.084355,7.05 71.5271729,6.60833333 72.147118,6.60833333 C72.7831656,6.60833333 73.2179323,7.05 73.2179323,7.69166667 Z" id="Shape"></path>
                    <path d="M81.1322964,5.56666667 C81.1322964,7.51666667 80.0373285,8.78333333 78.3465691,8.78333333 C77.6219579,8.78333333 77.0261665,8.49166667 76.6075023,7.96666667 L76.6075023,8.7 L74.3290027,8.7 L74.3290027,0.05 L76.6075023,0.05 L76.6075023,3.09166667 C77.010064,2.56666667 77.5978042,2.275 78.2902104,2.275 C80.0051235,2.275 81.1322964,3.58333333 81.1322964,5.56666667 Z M78.8296432,5.50833333 C78.8296432,4.66666667 78.3868253,4.1 77.7105215,4.1 C77.0583715,4.1 76.6075023,4.675 76.6075023,5.50833333 C76.6075023,6.34166667 77.0583715,6.91666667 77.7105215,6.91666667 C78.3948765,6.91666667 78.8296432,6.35 78.8296432,5.50833333 Z" id="Shape"></path>
                    <path d="M87.9838975,6.1 L83.8616651,6.1 C84.0387923,6.70833333 84.473559,7.04166667 85.0532479,7.04166667 C85.536322,7.04166667 86.0032937,6.81666667 86.4058554,6.43333333 L87.589387,7.63333333 C86.9452882,8.36666667 86.0193962,8.775 84.8600183,8.775 C82.8069533,8.775 81.5590119,7.49166667 81.5590119,5.54166667 C81.5590119,3.55833333 82.8552608,2.26666667 84.7956084,2.26666667 C86.9452882,2.275 88.1207685,3.76666667 87.9838975,6.1 Z M84.8197621,3.875 C84.2803294,3.875 83.926075,4.30833333 83.8133577,4.95 L85.7376029,4.95 C85.7537054,4.31666667 85.3672461,3.875 84.8197621,3.875 Z" id="Shape"></path>
                </g>
            </g>
        </g>
    </g>
</svg>