<?xml version="1.0" encoding="UTF-8"?>
<svg width="506px" height="370px" viewBox="0 0 506 370" version="1.1" xmlns="http://www.w3.org/2000/svg" xmlns:xlink="http://www.w3.org/1999/xlink">
    <!-- Generator: Sketch 49 (51002) - http://www.bohemiancoding.com/sketch -->
    <title>lol copy</title>
    <desc>Created with Sketch.</desc>
    <defs></defs>
    <g id="Page-1" stroke="none" stroke-width="1" fill="none" fill-rule="evenodd">
        <g id="filter-copy-2" transform="translate(-32.000000, -179.000000)" stroke="#FFFFFF">
            <g id="lol-copy" transform="translate(35.000000, 182.000000)">
                <rect id="Rectangle-path" stroke-width="4.4352" fill="#43C1D6" fill-rule="nonzero" stroke-linecap="round" stroke-linejoin="round" x="139.14608" y="122.282389" width="249.36608" height="159.816802" rx="6.57888"></rect>
                <rect id="Rectangle-path" stroke-width="4.4352" fill="#43C1D6" fill-rule="nonzero" stroke-linecap="round" stroke-linejoin="round" x="150.033195" y="131.163563" width="227.591849" height="145.017308"></rect>
                <path d="M129.252071,276.18087 L398.406169,276.18087 C398.406169,276.18087 400.38497,289.990283 392.477175,289.990283 L137.167278,289.990283 C137.167278,289.990283 127.273269,289.990283 129.252071,276.18087 Z" id="Shape" stroke-width="4.4352" fill="#43C1D6" fill-rule="nonzero" stroke-linecap="round" stroke-linejoin="round"></path>
                <path d="M192.166109,131.163563 L192.166109,276.18087" id="Shape" stroke-width="4.4352" fill="#FFFFFF" fill-rule="nonzero" stroke-linecap="round" stroke-linejoin="round"></path>
                <rect id="Rectangle-path" stroke-width="4.4352" fill="#43C1D6" fill-rule="nonzero" stroke-linecap="round" stroke-linejoin="round" x="208.411553" y="177.527429" width="25.7244231" height="41.4356275" rx="3.378144"></rect>
                <rect id="Rectangle-path" stroke-width="4.4352" fill="#43C1D6" fill-rule="nonzero" stroke-linecap="round" stroke-linejoin="round" x="249.973802" y="177.527429" width="25.7244231" height="41.4356275" rx="3.378144"></rect>
                <rect id="Rectangle-path" stroke-width="4.4352" fill="#43C1D6" fill-rule="nonzero" stroke-linecap="round" stroke-linejoin="round" x="291.53605" y="177.527429" width="25.7244231" height="41.4356275" rx="3.378144"></rect>
                <rect id="Rectangle-path" stroke-width="4.4352" fill="#43C1D6" fill-rule="nonzero" stroke-linecap="round" stroke-linejoin="round" x="333.098299" y="177.527429" width="25.7244231" height="41.4356275" rx="3.378144"></rect>
                <rect id="Rectangle-path" stroke-width="4.4352" fill="#43C1D6" fill-rule="nonzero" stroke-linecap="round" stroke-linejoin="round" x="208.411553" y="226.85415" width="25.7244231" height="41.4356275" rx="3.378144"></rect>
                <rect id="Rectangle-path" stroke-width="4.4352" fill="#43C1D6" fill-rule="nonzero" stroke-linecap="round" stroke-linejoin="round" x="249.973802" y="226.85415" width="25.7244231" height="41.4356275" rx="3.378144"></rect>
                <rect id="Rectangle-path" stroke-width="4.4352" fill="#43C1D6" fill-rule="nonzero" stroke-linecap="round" stroke-linejoin="round" x="291.53605" y="226.85415" width="25.7244231" height="41.4356275" rx="3.378144"></rect>
                <rect id="Rectangle-path" stroke-width="4.4352" fill="#43C1D6" fill-rule="nonzero" stroke-linecap="round" stroke-linejoin="round" x="333.098299" y="226.85415" width="25.7244231" height="41.4356275" rx="3.378144"></rect>
                <path d="M250.959497,150.891296 L310.338373,150.891296" id="Shape" stroke-width="4.4352" fill="#FFFFFF" fill-rule="nonzero" stroke-linecap="round" stroke-linejoin="round"></path>
                <path d="M460.408624,300.157085 C460.408624,300.157085 460.408624,293.559008 467.026864,293.559008 C473.645104,293.559008 474.749379,300.157085 474.749379,305.654251 C474.749379,311.151417 474.749379,336.450202 447.172145,336.450202 C419.594911,336.450202 417.393772,323.254049 416.289497,307.856073 C416.289497,302.358907 420.699186,300.157085 422.907737,303.422874 L422.907737,270.462045 C422.907737,270.462045 422.907737,261.669534 430.630251,261.669534 C438.352766,261.669534 437.248491,268.267611 437.248491,271.562955 L437.248491,292.458097 C437.248491,292.458097 437.248491,285.86002 444.971006,285.86002 C449.417751,285.86002 449.417751,291.357186 449.417751,296.854352 C449.417751,292.458097 449.417751,289.162753 454.931716,289.162753 C460.44568,289.162753 460.408624,300.157085 460.408624,300.157085 Z" id="Shape" stroke-width="4.4352" fill="#43C1D6" fill-rule="nonzero" stroke-linecap="round" stroke-linejoin="round"></path>
                <path d="M444.971006,262.763057 L453.790385,258.366802" id="Shape" stroke-width="4.4352" fill="#FFFFFF" fill-rule="nonzero" stroke-linecap="round" stroke-linejoin="round"></path>
                <path d="M439.44963,256.16498 L444.971006,248.465992" id="Shape" stroke-width="4.4352" fill="#FFFFFF" fill-rule="nonzero" stroke-linecap="round" stroke-linejoin="round"></path>
                <path d="M430.630251,253.970547 L430.630251,245.170648" id="Shape" stroke-width="4.4352" fill="#FFFFFF" fill-rule="nonzero" stroke-linecap="round" stroke-linejoin="round"></path>
                <path d="M416.289497,262.763057 L407.462707,258.366802" id="Shape" stroke-width="4.4352" fill="#FFFFFF" fill-rule="nonzero" stroke-linecap="round" stroke-linejoin="round"></path>
                <path d="M421.803462,256.16498 L416.289497,248.465992" id="Shape" stroke-width="4.4352" fill="#FFFFFF" fill-rule="nonzero" stroke-linecap="round" stroke-linejoin="round"></path>
                <path d="M430.630251,253.970547 L430.630251,245.170648" id="Shape" stroke-width="4.4352" fill="#FFFFFF" fill-rule="nonzero" stroke-linecap="round" stroke-linejoin="round"></path>
                <path d="M284.065518,289.990283 L283.769068,336.915688 C283.769068,336.915688 279.811464,364.541903 321.373713,364.541903 L419.661612,364.541903 C433.876376,364.541903 445.756598,353.348077 446.12716,339.176619 C446.12716,338.799798 446.12716,338.437753 446.12716,338.031377" id="Shape" stroke-width="4.4352" stroke-linecap="round" stroke-linejoin="round"></path>
                <path d="M157.844645,179.175101 L157.844645,199.86336" id="Shape" stroke-width="4.4352" stroke-linecap="round" stroke-linejoin="round" stroke-dasharray="23.68396797180176"></path>
                <path d="M111.806006,273.565283 L111.806006,283.724696" id="Shape" stroke-width="4.4352" stroke-linecap="round" stroke-linejoin="round" stroke-dasharray="14.16307172775269"></path>
                <path d="M116.89753,278.648684 L106.707071,278.648684" id="Shape" stroke-width="4.4352" stroke-linecap="round" stroke-linejoin="round" stroke-dasharray="14.16307172775269"></path>
                <ellipse id="Oval" stroke-width="4.4352" stroke-linecap="round" stroke-linejoin="round" cx="122.27068" cy="264.883603" rx="5.18786982" ry="5.17206478"></ellipse>
                <path d="M274.201154,296.654858 L274.201154,317.343117" id="Shape" stroke-width="4.4352" stroke-linecap="round" stroke-linejoin="round" stroke-dasharray="23.68396797180176"></path>
                <path d="M389.090237,115.263158 C389.090237,115.263158 395.760355,115.263158 395.760355,123.021255" id="Shape" stroke-width="3.3264" stroke-linecap="round" stroke-linejoin="round"></path>
                <path d="M402.430473,115.263158 C402.430473,115.263158 395.760355,115.263158 395.760355,123.021255" id="Shape" stroke-width="3.3264" stroke-linecap="round" stroke-linejoin="round"></path>
                <path d="M389.090237,115.263158 C389.090237,115.263158 395.760355,115.263158 395.760355,107.505061" id="Shape" stroke-width="3.3264" stroke-linecap="round" stroke-linejoin="round"></path>
                <path d="M402.430473,115.263158 C402.430473,115.263158 395.760355,115.263158 395.760355,107.505061" id="Shape" stroke-width="3.3264" stroke-linecap="round" stroke-linejoin="round"></path>
                <path d="M240.12426,78.3198381 C240.12426,78.3198381 246.794379,78.3198381 246.794379,86.0779352" id="Shape" stroke-width="3.3264" stroke-linecap="round" stroke-linejoin="round"></path>
                <path d="M253.464497,78.3198381 C253.464497,78.3198381 246.794379,78.3198381 246.794379,86.0779352" id="Shape" stroke-width="3.3264" stroke-linecap="round" stroke-linejoin="round"></path>
                <path d="M240.12426,78.3198381 C240.12426,78.3198381 246.794379,78.3198381 246.794379,70.5617409" id="Shape" stroke-width="3.3264" stroke-linecap="round" stroke-linejoin="round"></path>
                <path d="M253.464497,78.3198381 C253.464497,78.3198381 246.794379,78.3198381 246.794379,70.5617409" id="Shape" stroke-width="3.3264" stroke-linecap="round" stroke-linejoin="round"></path>
                <path d="M37.5231213,236.828846 L21.8928107,264.639777 C21.8928107,264.639777 19.5063905,269.98917 14.266642,269.021255 C13.4154441,268.849431 12.6005202,268.531954 11.8579882,268.082895 C10.2793935,267.129757 7.55205621,264.854049 9.07136095,259.637652 C9.80930188,257.653346 10.8328919,255.786629 12.1099704,254.096154 C14.7261391,250.401822 27.5031213,230.718421 27.5031213,230.718421 C27.5031213,230.718421 22.1818491,223.25587 27.2140828,215.047065 C27.8440385,214.02004 31.282855,210.133603 35.4331509,209.136134 C38.1901331,208.471154 38.1827219,210.030162 37.8640385,211.138462 C37.7235128,211.622636 37.5165081,212.085113 37.2489053,212.512753 L33.3505917,218.807895 L37.2266716,225.74585 L45.6977219,226.329555 L50.4112722,218.637955 C50.7546292,218.076017 51.2762632,217.64438 51.8935207,217.411437 C52.7235799,217.211943 53.7389201,219.591093 53.7092751,223.09332 C53.612003,225.497266 52.9139842,227.838918 51.6785947,229.905668 C49.7618227,233.143868 46.635727,235.492589 42.9852071,236.437247 C41.1398077,236.902733 38.9164349,237.301721 37.5231213,236.828846 Z" id="Shape" stroke-width="4.4352"></path>
                <path d="M74.9869527,55.0307692 C74.9869527,55.0307692 77.0028107,73.8053644 77.6772337,77.1967611 C78.3516568,80.5881579 78.3442456,79.8788462 78.3442456,81.2161943 C74.3125296,86.5803644 64.2628846,87.2527328 52.115858,87.9177126 C39.9688314,88.5826923 27.9107396,84.5337045 25.1982249,83.861336 C22.4857101,83.1889676 23.1823669,81.179251 23.1823669,81.179251 L26.5026036,56.6562753 L54.4726331,58.7177126 C54.4726331,58.7177126 70.4068047,55.4519231 74.9869527,55.0307692 Z" id="Shape" stroke-width="4.4352"></path>
                <path d="M26.5248373,56.6562753 L0,54.6761134 L29.5930917,49.9843117 L96.7685947,52.3930162 C96.9823669,52.4211828 97.1421262,52.6028901 97.1421262,52.8178644 C97.1421262,53.0328386 96.9823669,53.214546 96.7685947,53.2427126 C96.7685947,53.2427126 88.1048521,53.9815789 86.6522485,54.1736842" id="Shape" stroke-width="4.4352" stroke-linecap="round" stroke-linejoin="round"></path>
                <path d="M86.0815828,88.8930162 L86.5929586,54.1662955 C86.5929586,54.1662955 76.4766124,54.8460526 75.0165976,55.0529352" id="Shape" stroke-width="4.4352" stroke-linecap="round" stroke-linejoin="round"></path>
                <ellipse id="Oval" stroke-width="0.7392" fill="#FFFFFF" fill-rule="nonzero" cx="85.7851331" cy="90.0678138" rx="3.20906805" ry="1.92105263"></ellipse>
                <path d="M86.0667604,118.122571 C86.0667604,118.122571 87.5860651,92.6464575 86.8078846,91.3017206 C86.0297041,89.9569838 84.5252219,91.3017206 84.5252219,91.3017206 C84.5252219,91.3017206 83.0429734,96.6658907 81.4866124,117.450202 C81.4866124,118.122571 82.2277367,118.122571 82.9688609,118.122571 C83.7099852,118.122571 83.7099852,119.467308 83.7099852,119.467308 C83.7133759,119.655735 83.7950791,119.834303 83.9355867,119.960374 C84.0760943,120.086446 84.2627946,120.148705 84.4511095,120.132287 C85.1922337,120.132287 84.4511095,120.804656 85.1922337,120.804656 C85.933358,120.804656 86.0667604,118.122571 86.0667604,118.122571 Z" id="Shape" stroke-width="0.7392" fill="#FFFFFF" fill-rule="nonzero"></path>
                <ellipse id="Oval" stroke-width="0.7392" fill="#FFFFFF" fill-rule="nonzero" cx="51.4562574" cy="48.2923077" rx="3.37211538" ry="1.3742915"></ellipse>
                <path d="M50.1,51.011336 L50.1,48.9942308" id="Shape" stroke-width="4.4352"></path>
                <path d="M52.4567751,51.011336 L52.4567751,48.9942308" id="Shape" stroke-width="4.4352"></path>
                <rect id="Rectangle-path" stroke-width="4.4352" stroke-linecap="round" stroke-linejoin="round" x="433.172308" y="101.224696" width="67.4423077" height="45.8097166" rx="3.03072"></rect>
                <path d="M442.806923,109.352227 L489.497751,109.352227" id="Shape" stroke-width="4.4352" stroke-linecap="round" stroke-linejoin="round"></path>
                <path d="M442.806923,117.479757 L489.497751,117.479757" id="Shape" stroke-width="4.4352" stroke-linecap="round" stroke-linejoin="round"></path>
                <path d="M442.806923,134.473684 L457.99997,134.473684" id="Shape" stroke-width="4.4352" stroke-linecap="round" stroke-linejoin="round"></path>
                <path d="M474.482574,127.269737 L474.549275,127.269737 C475.58842,127.618338 476.718084,127.586909 477.736109,127.181073 L477.802811,127.181073 C479.026791,126.679322 480.43611,127.047161 481.25645,128.08249 C482.282357,129.366397 483.659617,130.326259 485.221464,130.84585 C486.480282,131.26271 487.395281,132.352217 487.585651,133.660931 C487.869797,135.665577 488.555335,137.592804 489.601509,139.328036 C489.977817,139.954796 489.876901,140.756613 489.356938,141.271255 C488.022815,142.602009 487.273681,144.40668 487.274379,146.288158 C487.272852,147.581208 486.33137,148.682515 485.051006,148.888968 C483.633132,149.123547 482.389738,149.966155 481.649246,151.194231 C481.051736,152.185802 479.789866,152.552592 478.75145,152.036538 C477.161527,151.244943 475.255085,151.446831 473.867441,152.553745 C473.499831,152.845936 473.026354,152.971443 472.561726,152.899855 C472.097098,152.828268 471.683713,152.566119 471.421731,152.176923 C470.174856,150.318708 468.215261,149.054598 466.004112,148.682085 C465.440747,148.585311 465.028313,148.099374 465.025828,147.529453 L465.025828,147.034413 C465.026765,145.106618 464.454191,143.221851 463.380533,141.618522 C462.614973,140.470709 462.766867,138.944035 463.743683,137.968522 C464.565703,137.149766 465.027037,136.038493 465.025828,134.880061 L465.025828,134.030364 C465.006927,132.566248 466.066196,131.309056 467.516006,131.074899 C468.745517,130.876162 469.802876,130.097256 470.354512,128.983907 L470.391568,128.917409 C471.153295,127.429046 472.897609,126.726516 474.482574,127.269737 Z" id="Shape" stroke-width="4.4352" fill="#43C1D6" fill-rule="nonzero" stroke-linecap="round" stroke-linejoin="round"></path>
                <ellipse id="Oval" stroke-width="4.4352" stroke-linecap="round" stroke-linejoin="round" cx="476.528077" cy="140.015182" rx="4.81730769" ry="4.80263158"></ellipse>
                <polyline id="Shape" stroke-width="4.4352" stroke-linecap="round" stroke-linejoin="round" points="469.487396 150.728745 469.487396 166.244939 476.157515 162.550607 482.827633 166.983806 483.04997 150.152429"></polyline>
                <path d="M388.45287,189.888664 L426.887574,189.888664 C426.887574,189.888664 454.309172,193.198785 454.309172,175.465992 L454.309172,149.605668" id="Shape" stroke-width="4.4352" stroke-linecap="round" stroke-linejoin="round" stroke-dasharray="14.16307172775269"></path>
                <path d="M138.019571,214.699798 L115.615385,214.699798 C115.615385,214.699798 94.8639053,211.685223 94.8639053,227.940283 C94.8639053,244.195344 93.3816568,247.889676 81.5236686,247.889676 L25.1982249,247.889676" id="Shape" stroke-width="4.4352" stroke-linecap="round" stroke-linejoin="round" stroke-dasharray="14.16307172775269"></path>
                <path d="M138.923743,154.68168 L79.3002959,154.68168 C79.3002959,154.68168 50.3964497,159.225709 50.3964497,138.537449 L50.3964497,88.2206478" id="Shape" stroke-width="4.4352" stroke-linecap="round" stroke-dasharray="14.16307172775269"></path>
                <path d="M296.06432,38.4210526 C296.066106,26.5305392 287.21009,16.488483 275.381166,14.9679123 C263.552242,13.4473416 252.430808,20.9213599 249.407147,32.4234211 C246.383486,43.9254822 252.398367,55.8768872 263.454852,60.33583 L263.454852,65.2197368 C263.462993,66.9453593 264.866309,68.3411005 266.597219,68.3451417 L278.848003,68.3451417 C280.577701,68.3410794 281.978884,66.9441648 281.982959,65.2197368 L281.982959,60.0476721 C290.553315,56.2489848 296.072998,47.7716733 296.06432,38.4210526 Z" id="Shape" stroke-width="4.4352" stroke-linecap="round" stroke-linejoin="round"></path>
                <path d="M272.348343,23.6437247 C272.348343,23.6437247 287.170828,23.6437247 288.653077,39.159919" id="Shape" stroke-width="4.4352" stroke-linecap="round" stroke-linejoin="round"></path>
                <path d="M273.089467,0 L273.089467,7.38866397" id="Shape" stroke-width="4.4352" stroke-linecap="round" stroke-linejoin="round"></path>
                <path d="M245.282485,9.93775304 L250.507411,15.1837045" id="Shape" stroke-width="4.4352" stroke-linecap="round" stroke-linejoin="round"></path>
                <path d="M300.288728,10.0781377 L294.804408,15.0433198" id="Shape" stroke-width="4.4352" stroke-linecap="round" stroke-linejoin="round"></path>
                <path d="M279.759586,68.7145749 L279.759586,80.4403846 C279.755512,82.1240063 278.387509,83.487841 276.698743,83.4919028 L267.997944,83.4919028 C266.309177,83.487841 264.941175,82.1240063 264.937101,80.4403846 L264.937101,67.9757085" id="Shape" stroke-width="4.4352" stroke-linecap="round" stroke-linejoin="round"></path>
            </g>
        </g>
    </g>
</svg>