<?xml version="1.0" encoding="UTF-8"?>
<svg width="397px" height="460px" viewBox="0 0 397 460" version="1.1" xmlns="http://www.w3.org/2000/svg" xmlns:xlink="http://www.w3.org/1999/xlink">
    <!-- Generator: Sketch 49 (51002) - http://www.bohemiancoding.com/sketch -->
    <title>Asset 1 Copy 2</title>
    <desc>Created with Sketch.</desc>
    <defs></defs>
    <g id="Page-1" stroke="none" stroke-width="1" fill="none" fill-rule="evenodd">
        <g id="filter-copy" transform="translate(-46.000000, -113.000000)" stroke="#FFFFFF">
            <g id="Asset-1-Copy-2" transform="translate(47.000000, 116.000000)">
                <path d="M106.994495,318.305246 C112.720147,320.607727 109.886239,328.900986 111.874312,334.740191 C113.680585,339.496997 118.747087,342.171521 123.701541,340.983593 L124.641358,334.256598 C132.78235,332.709464 141.183767,333.255913 149.054899,335.844515 C151.693615,336.71787 154.614275,338.226391 155.134789,340.954722 C155.525174,343.011797 154.462459,345.458633 155.79989,347.068203 C156.746936,348.215835 158.460294,348.302448 159.949541,348.237488 C174.714625,347.434119 188.428132,340.355793 197.621725,328.792719 C201.959339,323.263879 206.665651,316.046073 213.670899,316.674022 C213.851982,318.876511 215.751711,320.537664 217.962344,320.426529 C220.172976,320.315394 221.895963,318.472116 221.854532,316.262607 C221.854532,314.819046 221.059303,313.476534 220.762899,312.054626 C220.039963,308.640604 222.302752,305.161622 225.281248,303.335517 C228.259743,301.509412 231.823817,300.960859 235.27945,300.448394 C238.171193,301.444452 233.182936,306.316471 235.127633,308.669475 C235.784941,309.275457 236.647568,309.610674 237.542239,309.60779 C243.419706,310.293482 250.200844,310.676025 254.343266,306.468045 C257.386826,303.378824 259.403817,297.806677 263.683596,298.348013 C268.505578,298.947091 268.339303,305.984452 266.777761,310.574976 L262.888367,310.055294 C261.05211,312.032973 264.334239,314.992273 267.030789,314.667472 C269.727339,314.342671 272.286532,312.653704 274.910789,313.281653 C276.47956,313.656979 277.802532,314.847917 279.414679,314.992273 C285.292147,315.526391 284.034239,304.670811 289.044183,301.559936 C292.376917,302.76531 296.273541,304.7069 296.483193,308.236407 C296.591633,310.206868 295.420477,312.061844 295.398789,314.010652 C295.340954,319.488967 303.683633,324.209412 300.509945,328.677234 C303.473982,327.70283 306.944073,327.334722 309.561101,329.038124 C312.178128,330.741526 312.973358,335.158824 310.399706,336.919968 C319.089128,339.734235 328.53653,339.04255 336.721798,334.992814 C337.58743,334.473113 338.544305,334.12282 339.541248,333.960668 C342.642642,333.715262 344.457211,337.215898 345.989835,339.915358 C350.035404,346.872616 357.215411,351.432697 365.241615,352.142321 C367.012807,352.279459 368.856294,352.236153 370.490128,352.907409 C376.403743,355.325374 375.398862,363.900127 373.381872,369.934213 L368.415303,384.55027 C366.116367,391.313355 363.737908,398.213577 359.313541,403.821812 C357.954422,405.532432 356.342275,407.293577 356.233835,409.473355 C356.110936,412.006804 358.106239,414.32372 357.86044,416.849952 C357.614642,419.376184 355.250642,421.137329 353.103523,422.537583 C345.317505,427.590048 336.36033,432.916789 327.301945,430.801971 C324.923486,430.2462 322.646239,429.185183 320.202716,429.076916 C317.44833,428.961431 314.816844,430.072973 312.250422,431.06903 C304.254752,434.172687 293.454092,435.529634 288.646569,428.420095 C287.786275,427.142544 287.200697,425.626804 285.913872,424.746232 C282.234128,422.176693 277.535046,426.947663 273.060073,426.651733 C266.184954,426.204229 264.384844,414.807313 257.495266,414.201017 C255.49133,415.546937 254.38254,417.877211 254.603523,420.27841 L246.268073,420.682607 C248.003119,422.032337 246.651229,425.013291 244.641468,425.901081 C242.631706,426.788871 240.303853,426.550684 238.214569,427.2869 C236.125284,428.023116 234.310716,429.849221 232.055156,430.275072 C229.799596,430.700922 226.994606,428.282957 228.360954,426.442417 C219.287978,434.104725 206.774122,436.269407 195.64811,432.101176 C190.58756,430.195676 185.151083,433.313768 180.177284,435.500763 C175.203486,437.687758 168.162092,438.387886 165.451083,433.674658 C164.80767,432.54868 164.504037,431.220604 163.672661,430.217329 C162.682239,429.019173 161.106239,428.485056 159.616991,428.015898 L147.833138,424.269857 C146.970965,423.90714 146.023807,423.794564 145.10044,423.945056 C143.213578,424.443084 142.649688,426.767218 141.644807,428.441749 C138.601248,433.530302 128.986202,431.170079 128.631963,425.251479 L117.838532,423.728521 C116.833651,429.726518 108.924734,433.313768 103.734055,430.130715 C102.114679,429.141876 100.842312,427.669444 99.1072661,426.846614 C94.7696514,424.760668 88.8777248,427.265246 85.1979817,424.190461 C83.809945,423.028394 82.9207339,421.173418 81.2001468,420.581558 C78.7277064,419.773164 75.850422,422.104515 73.5587156,420.877488 C72.2646606,420.191797 71.6573945,418.575008 70.3271927,417.990366 C68.8813211,417.333545 67.1968807,418.134722 65.8016147,418.921463 C59.8807706,422.248871 52.998422,427.871542 55.1889174,434.29539 C50.6737023,434.212906 46.4564032,432.028861 43.7882202,428.391224 C41.8001468,425.626804 40.7591193,422.090079 38.0697982,419.996916 C36.3202936,418.639968 34.1081101,418.069762 32.1417248,417.059269 C25.9823119,413.905087 22.8375413,405.886105 25.216,399.390079 C26.0184587,397.224738 27.3848073,395.167663 27.7245872,392.857965 C28.7583853,386.073227 21.0952661,380.638219 21.0012844,373.774086 C20.8856147,365.199332 31.3898716,361.438855 39.2409541,357.952655 C49.2319266,353.520922 57.4589358,346.021622 66.1269358,339.366804 C78.1855046,330.099141 92.1164771,321.322289 107.037872,318.298029" id="Shape" stroke-width="4.32" stroke-linecap="round" stroke-linejoin="round"></path>
                <ellipse id="Oval" stroke-width="4.32" fill="#43C1D6" fill-rule="nonzero" cx="126.896917" cy="368.829889" rx="11.2055046" ry="7.93958665"></ellipse>
                <ellipse id="Oval" stroke-width="4.32" fill="#43C1D6" fill-rule="nonzero" cx="211.480404" cy="393.370429" rx="11.2055046" ry="7.93958665"></ellipse>
                <ellipse id="Oval" stroke-width="4.32" fill="#43C1D6" fill-rule="nonzero" cx="343.054716" cy="364.499205" rx="11.2055046" ry="7.93958665"></ellipse>
                <path d="M127.554789,282.014118 C111.650202,282.014118 97.2926972,293.504865 96.9818349,313.000159 C96.9498352,314.908719 97.2582766,316.807736 97.8927339,318.608394 C99.3386055,324.555866 106.27156,339.294626 126.97644,365.942766 C126.97644,365.942766 155.763743,332.60372 157.49156,314.205533 C159.219376,295.807345 143.097908,281.443911 127.554789,282.014118 Z M127.301761,325.703498 C121.245496,325.706417 115.783943,322.066287 113.464284,316.480806 C111.144625,310.895324 112.42378,304.464706 116.705173,300.18809 C120.986566,295.911473 127.426857,294.631256 133.022397,296.94451 C138.617938,299.257765 142.266531,304.708832 142.266532,310.755421 C142.266533,319.008198 135.567745,325.699513 127.301761,325.703498 Z" id="Shape" stroke-width="4.32" fill="#43C1D6" fill-rule="nonzero"></path>
                <path d="M211.400881,338.515103 C201.135193,338.515103 191.881615,345.92779 191.686422,358.501208 C191.668024,359.72916 191.866241,360.950763 192.272,362.110111 C193.204587,365.942766 197.67233,375.448617 211.024954,392.634213 C211.024954,392.634213 229.589945,371.132369 230.703266,359.273514 C231.816587,347.414658 221.420771,338.154213 211.400881,338.515103 Z M211.234606,366.664547 C207.327482,366.667467 203.803453,364.31988 202.306234,360.716774 C200.809016,357.113668 201.633564,352.964864 204.395284,350.205491 C207.157004,347.446119 211.31183,346.619782 214.921823,348.11191 C218.531815,349.604037 220.885797,353.120677 220.885798,357.021558 C220.895404,359.584035 219.883059,362.044952 218.072275,363.860967 C216.261492,365.676982 213.8012,366.698736 211.234606,366.700636 L211.234606,366.664547 Z" id="Shape" stroke-width="4.32" fill="#43C1D6" fill-rule="nonzero"></path>
                <path d="M343.054716,294.580318 C330.041872,294.580318 318.366459,303.963466 318.113431,319.842639 C318.081657,321.401028 318.326411,322.952732 318.836367,324.425946 C320.014752,329.269094 325.66811,341.301176 342.563119,363.041208 C342.563119,363.041208 366.058532,335.837297 367.461028,320.831479 C368.863523,305.82566 355.742239,294.111161 343.054716,294.580318 Z M342.852294,330.221844 C337.909415,330.224763 333.451754,327.253864 331.558846,322.695095 C329.665937,318.136326 330.710765,312.887959 334.205908,309.3984 C337.701052,305.908842 342.957818,304.865684 347.523883,306.755568 C352.089949,308.645451 355.065603,313.09599 355.062679,318.03097 C355.058691,324.762154 349.594251,330.217862 342.852294,330.221844 Z" id="Shape" stroke-width="4.32" fill="#43C1D6" fill-rule="nonzero"></path>
                <path d="M173.25156,18.0445151 L268.93211,18.0445151 L268.93211,153.392814 C268.93211,153.392814 267.334422,204.350525 230.652661,204.350525 L149.329615,204.350525 C149.329615,204.350525 128.595817,204.350525 126.998128,161.354054 L173.266018,161.354054 L173.25156,18.0445151 Z" id="Shape" stroke-width="4.32" stroke-linecap="round" stroke-linejoin="round"></path>
                <path d="M173.25156,161.354054 C173.25156,161.354054 176.439706,205.94566 149.329615,204.350525" id="Shape" stroke-width="4.32" stroke-linecap="round" stroke-linejoin="round"></path>
                <ellipse id="Oval" stroke-width="4.32" fill="#43C1D6" fill-rule="nonzero" stroke-linecap="round" stroke-linejoin="round" cx="235.351743" cy="49.7595548" rx="7.29442202" ry="7.2827663"></ellipse>
                <path d="M222.035266,45.140159 L248.67545,45.140159" id="Shape" stroke-width="4.32" stroke-linecap="round"></path>
                <polygon id="Shape" stroke-width="4.32" fill="#43C1D6" fill-rule="nonzero" stroke-linecap="round" stroke-linejoin="round" points="227.782606 44.9958029 225.541505 25.117965 244.887266 25.117965 242.125651 45.0535453"></polygon>
                <path d="M235.778275,71.8749126 L221.890679,71.8749126 C221.890679,58.9983466 230.688807,55.7936407 230.688807,55.7936407" id="Shape" stroke-width="4.32"></path>
                <path d="M235.214385,71.8749126 L249.094752,71.8749126 C249.094752,58.9983466 240.303853,55.7936407 240.303853,55.7936407" id="Shape" stroke-width="4.32"></path>
                <path d="M243.470312,57.7424483 C243.470312,57.7424483 236.754239,70.7344992 227.218716,71.8749126" id="Shape" stroke-width="4.32"></path>
                <ellipse id="Oval" stroke-width="4.32" fill="#FFFFFF" fill-rule="nonzero" stroke-linecap="round" stroke-linejoin="round" cx="191.25989" cy="48.4964388" rx="7.2293578" ry="7.21780604"></ellipse>
                <ellipse id="Oval" stroke-width="4.32" fill="#43C1D6" fill-rule="nonzero" stroke-linecap="round" stroke-linejoin="round" cx="234.672183" cy="98.7684579" rx="7.65588991" ry="7.6436566"></ellipse>
                <path d="M235.113174,121.980922 L220.546018,121.980922 C220.546018,108.469189 229.770679,105.098474 229.770679,105.098474" id="Shape" stroke-width="4.32"></path>
                <path d="M234.527596,121.980922 L249.094752,121.980922 C249.094752,108.469189 239.862862,105.098474 239.862862,105.098474" id="Shape" stroke-width="4.32"></path>
                <ellipse id="Oval" stroke-width="4.32" stroke-linecap="round" stroke-linejoin="round" cx="191.25989" cy="106.556471" rx="7.2293578" ry="7.21780604"></ellipse>
                <ellipse id="Oval" stroke-width="4.32" fill="#43C1D6" fill-rule="nonzero" stroke-linecap="round" stroke-linejoin="round" cx="234.672183" cy="151.047027" rx="7.65588991" ry="7.6436566"></ellipse>
                <path d="M235.113174,174.266709 L220.546018,174.266709 C220.546018,160.747758 229.770679,157.384261 229.770679,157.384261" id="Shape" stroke-width="4.32"></path>
                <path d="M234.527596,174.266709 L249.094752,174.266709 C249.094752,160.747758 239.862862,157.384261 239.862862,157.384261" id="Shape" stroke-width="4.32"></path>
                <ellipse id="Oval" stroke-width="4.32" stroke-linecap="round" stroke-linejoin="round" cx="191.25989" cy="158.83504" rx="7.2293578" ry="7.21780604"></ellipse>
                <path d="M176.244514,204.263911 L176.244514,215.826836" id="Shape" stroke-width="4.32" stroke-linecap="round" stroke-linejoin="round"></path>
                <path d="M176.244514,234.412687 L176.244514,235.300477 C176.244514,235.300477 178.413321,248.292528 163.23167,248.292528 L146.033028,248.292528 C144.211229,248.292528 142.418349,248.198696 140.574862,248.075994 C137.054165,247.830588 129.239229,248.487409 129.239229,259.119237 L129.239229,261.075262" id="Shape" stroke-width="4.32" stroke-linecap="round" stroke-linejoin="round" stroke-dasharray="18.53280029296875"></path>
                <path d="M129.253688,270.364579 L129.253688,281.913068" id="Shape" stroke-width="4.32" stroke-linecap="round" stroke-linejoin="round"></path>
                <path d="M343.242679,293.764706 L343.242679,282.216216" id="Shape" stroke-width="4.32" stroke-linecap="round" stroke-linejoin="round"></path>
                <path d="M343.213761,258.217011 C342.649872,248.732814 335.261468,248.112083 331.914275,248.364706 L258.659193,248.364706 L245.754789,248.292528 C230.573138,248.292528 232.741945,235.300477 232.741945,235.300477 L232.741945,227.815612" id="Shape" stroke-width="4.32" stroke-linecap="round" stroke-linejoin="round" stroke-dasharray="23.91840133666992"></path>
                <path d="M232.741945,215.826836 L232.741945,204.263911" id="Shape" stroke-width="4.32" stroke-linecap="round" stroke-linejoin="round"></path>
                <path d="M211.40811,205.12283 L211.40811,216.685755" id="Shape" stroke-width="4.32" stroke-linecap="round" stroke-linejoin="round"></path>
                <path d="M211.40811,238.74337 L211.40811,315.92337" id="Shape" stroke-width="4.32" stroke-linecap="round" stroke-linejoin="round" stroke-dasharray="21.99599990844726"></path>
                <path d="M211.40811,326.952178 L211.40811,338.515103" id="Shape" stroke-width="4.32" stroke-linecap="round" stroke-linejoin="round"></path>
                <path d="M393.848183,346.541304 L385.259706,355.116057" id="Shape" stroke-width="3.1536" stroke-linecap="round" stroke-linejoin="round" stroke-dasharray="16.85519943237304"></path>
                <path d="M393.848183,355.116057 L385.259706,346.541304" id="Shape" stroke-width="3.1536" stroke-linecap="round" stroke-linejoin="round" stroke-dasharray="16.85519943237304"></path>
                <path d="M5.54491743,357.100954 L5.54491743,367.025437" id="Shape" stroke-width="2.5848" stroke-linecap="round" stroke-linejoin="round" stroke-dasharray="13.79520034790039"></path>
                <path d="M10.5114862,362.066804 L0.571119266,362.066804" id="Shape" stroke-width="2.5848" stroke-linecap="round" stroke-linejoin="round" stroke-dasharray="13.79520034790039"></path>
                <path d="M169.738092,3.96979332 L162.595486,11.1009857" id="Shape" stroke-width="2.628" stroke-linecap="round" stroke-linejoin="round" stroke-dasharray="14.01839904785156"></path>
                <path d="M169.738092,11.1009857 L162.595486,3.96979332" id="Shape" stroke-width="2.628" stroke-linecap="round" stroke-linejoin="round" stroke-dasharray="14.01839904785156"></path>
                <ellipse id="Oval" stroke-width="4.32" stroke-linecap="round" stroke-linejoin="round" cx="17.5601101" cy="343.206677" rx="9.03669725" ry="9.02225755"></ellipse>
                <ellipse id="Oval" stroke-width="4.32" stroke-linecap="round" stroke-linejoin="round" cx="94.5527706" cy="168.896661" rx="5.06055046" ry="5.05246423"></ellipse>
                <path d="M167.569284,131.36407 L167.569284,151.573927" id="Shape" stroke-width="4.32" stroke-linecap="round" stroke-linejoin="round" stroke-dasharray="23.06880111694336"></path>
                <path d="M276.009651,65.682035 L276.009651,80.1176471" id="Shape" stroke-width="4.32" stroke-linecap="round" stroke-linejoin="round" stroke-dasharray="19.49759902954101"></path>
                <path d="M268.057358,10.1049285 C268.057358,10.1049285 276.732587,10.1049285 276.732587,20.2098569" id="Shape" stroke-width="4.32" stroke-linecap="round" stroke-linejoin="round"></path>
                <path d="M285.407817,10.1049285 C285.407817,10.1049285 276.732587,10.1049285 276.732587,20.2098569" id="Shape" stroke-width="4.32" stroke-linecap="round" stroke-linejoin="round"></path>
                <path d="M268.057358,10.1049285 C268.057358,10.1049285 276.732587,10.1049285 276.732587,0" id="Shape" stroke-width="4.32" stroke-linecap="round" stroke-linejoin="round"></path>
                <path d="M285.407817,10.1049285 C285.407817,10.1049285 276.732587,10.1049285 276.732587,0" id="Shape" stroke-width="4.32" stroke-linecap="round" stroke-linejoin="round"></path>
                <path d="M28.0426789,443.895072 C28.0426789,443.895072 36.7179083,443.895072 36.7179083,454" id="Shape" stroke-width="4.32" stroke-linecap="round" stroke-linejoin="round"></path>
                <path d="M45.3931376,443.895072 C45.3931376,443.895072 36.7179083,443.895072 36.7179083,454" id="Shape" stroke-width="4.32" stroke-linecap="round" stroke-linejoin="round"></path>
                <path d="M28.0426789,443.895072 C28.0426789,443.895072 36.7179083,443.895072 36.7179083,433.790143" id="Shape" stroke-width="4.32" stroke-linecap="round" stroke-linejoin="round"></path>
                <path d="M45.3931376,443.895072 C45.3931376,443.895072 36.7179083,443.895072 36.7179083,433.790143" id="Shape" stroke-width="4.32" stroke-linecap="round" stroke-linejoin="round"></path>
            </g>
        </g>
    </g>
</svg>