<?xml version="1.0" encoding="UTF-8"?>
<svg width="97px" height="46px" viewBox="0 0 97 46" version="1.1" xmlns="http://www.w3.org/2000/svg" xmlns:xlink="http://www.w3.org/1999/xlink">
    <!-- Generator: Sketch 49 (51002) - http://www.bohemiancoding.com/sketch -->
    <title>vlaanderen-logo</title>
    <desc>Created with Sketch.</desc>
    <defs></defs>
    <g id="Page-1" stroke="none" stroke-width="1" fill="none" fill-rule="evenodd">
        <g id="Desktop" transform="translate(-239.000000, -621.000000)">
            <g id="vlaanderen-logo" transform="translate(239.000000, 622.000000)">
                <path d="M21,20.9851222 C19.8435153,20.120085 19.3006755,20.9851222 18.5690219,20.9851222 C17.8373683,20.9851222 17.3653337,19.9213603 16.8932991,20.1902232 C15.9846325,20.6461211 17.2591259,22.3177471 17.8137666,22.5982997 C18.2267968,22.8320935 18.6516279,23.042508 19.0764591,23.229543 C19.7255066,23.5217853 20.1385369,24.1647184 20.1503377,24.8777896 C20.1857403,25.1466525 20.1857403,25.4038257 20.1503377,25.6726886 C19.8199135,27.0754516 17.3181302,28.3496281 15.8666239,27.3793836 C15.0877668,26.911796 14.544927,26.1402763 14.3679141,25.2518597 C13.9784855,23.4165781 12.633187,22.0722635 12.2201567,20.2603613 C11.9487368,19.1965994 11.759923,18.0042508 11.4649014,16.9171095 C11.1698798,15.8182784 10.8748581,14.6142402 10.62704,13.5504782 C10.3556201,12.4399575 10.0251959,11.3528162 9.6239665,10.2773645 C8.24326534,6.77045696 7.64142124,7.02763018 7.64142124,7.02763018 C7.64142124,7.02763018 8.13705755,8.00956429 9.94258984,16.5781084 C10.2494123,18.4250797 10.6506417,20.2486716 11.1580789,22.0488842 C11.3350919,22.4930925 11.6301135,23.4516472 11.8189273,23.8724761 C12.3971697,25.0998937 13.9666847,26.9702444 14.0138881,28.6652497 C14.0728925,29.6471838 14.1909011,30.4537726 14.202702,31.1785335 C14.2381046,31.6811902 14.3207106,32.183847 14.462321,32.6631243 C14.8399487,33.7268863 17.8255674,37 21,37 L21,34.4399575 C18.7932383,34.3931987 16.6336801,33.7268863 14.7927452,32.5111583 C14.8399487,31.8916047 14.9579573,31.2837407 15.1703729,30.7109458 C15.5243988,29.5770457 16.5392732,28.7587673 17.7311605,28.65356 C18.8050392,28.6769394 19.8907187,28.7821467 20.9409957,28.9808714 L20.9409957,20.9851222 L21,20.9851222 Z M7.29919617,11.8087141 C7.18118752,13.6907545 4.2191705,16.2624867 3.29870306,17.9107333 C2.77946501,18.8575983 2.37823561,19.8746015 2.13041746,20.9266738 C1.81179411,22.6099894 2.04781141,24.3400638 2.79126588,25.8831031 C3.77073764,28.1976621 2.66145637,29.0626993 3.42851257,28.5834219 C4.37258174,27.8235919 4.23097136,26.0467588 4.16016617,24.9479277 C4.06575926,23.9543039 4.06575926,22.9489904 4.16016617,21.9553666 C4.5849973,19.8979809 5.47006215,17.9691817 6.74455553,16.2975558 C7.60601865,14.9649309 7.81843421,13.3166844 7.29919617,11.8087141 Z M7.8892394,17.1158342 C7.8892394,17.1158342 8.19606188,18.6004251 6.81536072,22.4229543 C3.32230478,32.4527099 10.0251959,33.3995749 11.8897325,35.7608927 C11.8897325,35.7608927 12.633187,34.6971307 9.60036477,31.5175345 C8.52648609,30.325186 7.45260741,27.6950053 8.37307485,23.9309245 C9.6239665,18.4835282 7.84203594,17.1509033 7.84203594,17.1509033 L7.8892394,17.1158342 Z M1.2807552,10.5812965 C1.1155431,10.0669501 1.04473791,9.52922423 1.05653878,8.99149841 C1.26895434,6.63018066 3.44031343,5.68331562 3.9831532,5.33262487 C4.47878952,5.01700319 4.86821805,4.54941552 5.09243448,4 C5.67067685,5.43783209 5.12783707,7.08607864 3.79433937,7.89266738 C2.70865982,8.53560043 1.83539584,9.47077577 1.2807552,10.5812965 Z M6.75635639,8.30180659 C6.87436504,8.54729012 7.83023507,9.84484591 4.10116185,12.837407 C0.372088628,15.8299681 1.57577682,17.9691817 1.57577682,17.9691817 C1.57577682,17.9691817 -2.34211024,15.8416578 2.17762092,12.1009564 C6.69735207,8.36025505 5.76508376,7.64718385 5.76508376,7.64718385 C6.20171575,7.65887354 6.57934342,7.91604676 6.75635639,8.30180659 Z M11.5357066,9.45908608 C12.1729533,9.54091392 12.6095852,11.4930925 14.0492907,11.9256111 C15.1231694,12.229543 16.2796541,12.0658874 16.5392732,12.7088204 C16.3032559,12.9075452 16.2678533,13.2465462 16.468468,13.4803401 C16.5864766,13.6206164 16.7634896,13.6907545 16.9405026,13.6790648 C17.3535328,12.498406 17.5659484,8.11477152 11.5357066,9.45908608 Z M13.5300527,10.370882 C13.5300527,10.2306057 13.6598622,10.370882 13.8250743,10.2422954 C13.9902864,10.031881 14.2145028,9.8565356 14.462321,9.72794899 C14.6747366,9.65781084 14.9107539,9.65781084 15.1231694,9.72794899 C15.2529789,9.72794899 15.1231694,10.0786397 15.1231694,10.1487779 C15.1231694,10.218916 14.3325115,10.0552604 14.3325115,10.487779 C14.3325115,11.2008502 15.3119832,10.487779 15.8076196,10.487779 C16.0554377,12.229543 13.152425,11.7502657 13.5772561,10.3124336 L13.5300527,10.370882 Z" id="Shape" fill="#FFFFFF" fill-rule="nonzero"></path>
                <path d="M20,0 L35,44" id="Shape" stroke="#FFFFFF" stroke-width="2"></path>
                <g id="Group" transform="translate(38.000000, 8.000000)" fill="#FFFFFF" fill-rule="nonzero">
                    <polygon id="Shape" points="9.32694611 1.03686636 5.74690619 11.1981567 3.61536926 11.1981567 0.0353293413 1.03686636 1.95489022 1.03686636 4.6752495 8.75576037 7.39560878 1.03686636"></polygon>
                    <polygon id="Shape" points="12.3770459 0.0576036866 12.3770459 11.0483871 10.5634731 11.0483871 10.5634731 0.207373272 12.141517 0.0576036866"></polygon>
                    <path d="M20.1377246,8.53686636 C20.1377246,9.17050691 20.5381238,9.56221198 21.3389222,9.71198157 L20.5145709,11.1981567 C19.8197605,11.1981567 19.2073852,10.921659 18.6892216,10.3686636 C18.2888224,10.656682 17.9473054,10.8640553 17.6528942,11.0023041 C17.358483,11.140553 16.910978,11.1981567 16.3221557,11.1981567 C15.7333333,11.1981567 15.2151697,11.0368664 14.7676647,10.7258065 C14.1552894,10.3110599 13.8491018,9.61981567 13.8491018,8.68663594 C13.8491018,7.94930876 14.0610778,7.4078341 14.4850299,7.03917051 C14.908982,6.67050691 15.6391218,6.49769585 16.6754491,6.49769585 C17.2996008,6.49769585 17.8530938,6.52073733 18.3241517,6.55529954 L18.3241517,6.16359447 C18.3241517,5.19585253 17.7942116,4.71198157 16.7461078,4.71198157 C16.0984032,4.71198157 15.3800399,4.88479263 14.591018,5.24193548 L14.1788423,3.68663594 C15.1327345,3.23732719 16.0866267,3.00691244 17.0287425,3.00691244 C17.9708583,3.00691244 18.7245509,3.21428571 19.2898204,3.62903226 C19.8550898,4.0437788 20.1377246,4.71198157 20.149501,5.61059908 L20.149501,8.53686636 L20.1377246,8.53686636 Z M18.3241517,7.85714286 L17.7706587,7.85714286 C17.0876248,7.85714286 16.6165669,7.89170507 16.3692615,7.94930876 C15.8982036,8.06451613 15.6744511,8.32949309 15.6744511,8.74423963 C15.6744511,9.05529954 15.7804391,9.30875576 15.9806387,9.48156682 C16.1926148,9.65437788 16.4634731,9.74654378 16.8167665,9.74654378 C17.1582834,9.74654378 17.4644711,9.66589862 17.7353293,9.50460829 C18.1239521,9.26267281 18.3241517,8.88248848 18.3241517,8.32949309 L18.3241517,7.85714286 Z" id="Shape"></path>
                    <path d="M28.1457086,8.53686636 C28.1457086,9.17050691 28.5461078,9.56221198 29.3469062,9.71198157 L28.5225549,11.1981567 C27.8277445,11.1981567 27.2153693,10.921659 26.6972056,10.3686636 C26.2968064,10.656682 25.9552894,10.8640553 25.6608782,11.0023041 C25.3664671,11.140553 24.9189621,11.1981567 24.3301397,11.1981567 C23.7413174,11.1981567 23.2231537,11.0368664 22.7756487,10.7258065 C22.1632735,10.3110599 21.8570858,9.61981567 21.8570858,8.68663594 C21.8570858,7.94930876 22.0690619,7.4078341 22.493014,7.03917051 C22.9169661,6.67050691 23.6471058,6.49769585 24.6834331,6.49769585 C25.3075848,6.49769585 25.8610778,6.52073733 26.3321357,6.55529954 L26.3321357,6.16359447 C26.3321357,5.19585253 25.8021956,4.71198157 24.7540918,4.71198157 C24.1063872,4.71198157 23.388024,4.88479263 22.599002,5.24193548 L22.1750499,3.68663594 C23.1289421,3.23732719 24.0828343,3.00691244 25.0249501,3.00691244 C25.9670659,3.00691244 26.7207585,3.21428571 27.2860279,3.62903226 C27.8512974,4.0437788 28.1339321,4.71198157 28.1457086,5.61059908 L28.1457086,8.53686636 Z M26.3321357,7.85714286 L25.7786427,7.85714286 C25.0956088,7.85714286 24.6245509,7.89170507 24.3772455,7.94930876 C23.9061876,8.06451613 23.6824351,8.32949309 23.6824351,8.74423963 C23.6824351,9.05529954 23.7884232,9.30875576 23.9886228,9.48156682 C24.2005988,9.65437788 24.4714571,9.74654378 24.8247505,9.74654378 C25.1662675,9.74654378 25.4724551,9.66589862 25.7433134,9.50460829 C26.1319361,9.26267281 26.3321357,8.88248848 26.3321357,8.32949309 L26.3321357,7.85714286 Z" id="Shape"></path>
                    <path d="M38.5207585,3.01843318 C39.3333333,3.01843318 39.9928144,3.24884793 40.4638723,3.72119816 C40.9349301,4.19354839 41.1822355,4.89631336 41.1822355,5.81797235 L41.1822355,11.0483871 L39.3686627,11.0483871 L39.3686627,6.29032258 C39.3686627,5.74884793 39.2391218,5.35714286 38.9800399,5.10368664 C38.7209581,4.85023041 38.3794411,4.7235023 37.9672655,4.71198157 C37.5433134,4.71198157 37.1075848,4.85023041 36.6483034,5.11520737 C36.6836327,5.35714286 36.7071856,5.56451613 36.7071856,5.76036866 L36.7071856,11.0368664 L34.8936128,11.0368664 L34.8936128,6.27880184 C34.8936128,5.73732719 34.7640719,5.33410138 34.5167665,5.0921659 C34.2694611,4.83870968 33.9397206,4.71198157 33.5393214,4.71198157 C33.1389222,4.71198157 32.6914172,4.86175115 32.2203593,5.16129032 L32.2203593,11.0368664 L30.4067864,11.0368664 L30.4067864,3.16820276 L31.949501,3.16820276 L32.1143713,3.72119816 C32.7856287,3.24884793 33.5157685,3.01843318 34.3283433,3.01843318 C35.1409182,3.01843318 35.7650699,3.32949309 36.2125749,3.94009217 C36.9309381,3.32949309 37.7081836,3.01843318 38.5207585,3.01843318 Z" id="Shape"></path>
                    <path d="M45.3982036,9.27419355 C45.6572854,9.12442396 45.7868263,8.90552995 45.7868263,8.640553 C45.7868263,8.3640553 45.6926148,8.14516129 45.5041916,7.97235023 C45.3157685,7.79953917 44.8682635,7.61520737 44.1616766,7.41935484 C43.4550898,7.21198157 42.9487026,6.87788018 42.642515,6.40552995 C42.4658683,6.15207373 42.3834331,5.79493088 42.3834331,5.35714286 C42.3834331,4.58525346 42.642515,3.99769585 43.1724551,3.60599078 C43.6906188,3.21428571 44.3265469,3.01843318 45.0684631,3.01843318 C45.8103792,3.01843318 46.4463074,3.12211982 46.988024,3.31797235 L46.988024,4.9078341 L46.8938124,4.97695853 C46.4345309,4.76958525 45.9870259,4.65437788 45.5630739,4.65437788 C45.1391218,4.65437788 44.7976048,4.71198157 44.5620758,4.83870968 C44.3147705,4.96543779 44.197006,5.11520737 44.197006,5.31105991 C44.197006,5.51843318 44.2794411,5.66820276 44.4207585,5.78341014 C44.5620758,5.89861751 44.7858283,6.00230415 45.0684631,6.09447005 L45.8810379,6.37096774 C47.0233533,6.75115207 47.5886228,7.48847926 47.5886228,8.58294931 C47.5886228,9.44700461 47.2942116,10.1036866 46.6818363,10.5529954 C46.0694611,11.0023041 45.3393214,11.2211982 44.5031936,11.2211982 C43.6670659,11.2211982 42.960479,11.0368664 42.3834331,10.6797235 L42.3834331,8.98617512 L42.4423154,8.94009217 C43.1371257,9.30875576 43.7966068,9.49308756 44.4325349,9.49308756 C44.8329341,9.49308756 45.1391218,9.42396313 45.3982036,9.27419355 Z" id="Shape"></path>
                    <path d="M52.5700599,11.1981567 C51.3924152,11.1981567 50.4149701,10.8410138 49.6141717,10.1267281 C48.8133733,9.4124424 48.4129741,8.42165899 48.4129741,7.14285714 C48.4129741,5.8640553 48.7780439,4.85023041 49.4964072,4.11290323 C50.2147705,3.37557604 51.0626747,3.00691244 52.0401198,3.00691244 C52.4522954,3.00691244 52.8526946,3.06451613 53.2295409,3.19124424 C53.8065868,3.38709677 54.2658683,3.70967742 54.6073852,4.18202765 C55.0431138,4.76958525 55.2668663,5.57603687 55.2668663,6.57834101 L55.2668663,7.76497696 L50.3796407,7.76497696 C50.5209581,8.3640553 50.8035928,8.79032258 51.2393214,9.07834101 C51.6750499,9.35483871 52.2167665,9.49308756 52.8526946,9.49308756 C53.4886228,9.49308756 54.1245509,9.3202765 54.7840319,8.97465438 L54.8546906,8.99769585 L54.8546906,10.7258065 C54.206986,11.0483871 53.441517,11.1981567 52.5700599,11.1981567 Z M53.1235529,5.13824885 C52.8291417,4.85023041 52.4876248,4.71198157 52.0872255,4.7235023 C51.6868263,4.7235023 51.3217565,4.87327189 51.0037924,5.13824885 C50.6858283,5.41474654 50.4738523,5.81797235 50.3560878,6.37096774 L53.6063872,6.37096774 C53.5828343,5.82949309 53.4179641,5.42626728 53.1235529,5.13824885 Z" id="Shape"></path>
                    <path d="M4.32195609,24.8963134 C3.16786427,24.8963134 2.2257485,24.516129 1.50738523,23.7442396 C0.789021956,22.9723502 0.435728543,22.0046083 0.435728543,20.8179724 C0.435728543,19.6428571 0.800798403,18.6635945 1.54271457,17.8801843 C2.28463074,17.0967742 3.22674651,16.7050691 4.39261477,16.7050691 C5.55848303,16.7050691 6.48882236,17.0967742 7.19540918,17.8801843 C7.90199601,18.6635945 8.25528942,19.6313364 8.25528942,20.8064516 C8.25528942,21.9815668 7.89021956,22.9493088 7.14830339,23.7327189 C6.40638723,24.5046083 5.46427146,24.8963134 4.32195609,24.8963134 Z M2.79101796,19.078341 C2.4259481,19.516129 2.2493014,20.0806452 2.2493014,20.7603687 C2.2493014,21.4516129 2.43772455,22.0276498 2.80279441,22.4884793 C3.16786427,22.9493088 3.69780439,23.1797235 4.36906188,23.1797235 C5.04031936,23.1797235 5.55848303,22.9608295 5.91177645,22.5345622 C6.26506986,22.1082949 6.44171657,21.5437788 6.44171657,20.8294931 C6.44171657,20.1152074 6.26506986,19.5391705 5.91177645,19.078341 C5.55848303,18.6175115 5.04031936,18.3986175 4.35728543,18.3986175 C3.6742515,18.421659 3.14431138,18.640553 2.79101796,19.078341 Z" id="Shape"></path>
                    <polygon id="Shape" points="11.4820359 24.735023 8.71457086 16.8548387 10.6812375 16.8548387 12.4948104 22.0046083 12.5419162 22.0046083 14.355489 16.8548387 16.3221557 16.8548387 13.5546906 24.735023 11.4820359 24.735023"></polygon>
                    <path d="M20.8678643,24.8963134 C19.6902196,24.8963134 18.7127745,24.5391705 17.911976,23.8248848 C17.1111776,23.1105991 16.7107784,22.1198157 16.7107784,20.8410138 C16.7107784,19.562212 17.0758483,18.5483871 17.7942116,17.8110599 C18.5125749,17.0737327 19.360479,16.7050691 20.3379242,16.7050691 C20.7500998,16.7050691 21.150499,16.7626728 21.5273453,16.8894009 C22.1043912,17.0852535 22.5636727,17.4078341 22.9051896,17.8801843 C23.3409182,18.4677419 23.5646707,19.2741935 23.5646707,20.2764977 L23.5646707,21.4631336 L18.6774451,21.4631336 C18.8187625,22.062212 19.1013972,22.4884793 19.5371257,22.7764977 C19.9728543,23.0645161 20.5145709,23.1912442 21.150499,23.1912442 C21.7864271,23.1912442 22.4223553,23.0184332 23.0818363,22.6728111 L23.152495,22.6958525 L23.152495,24.4239631 C22.493014,24.735023 21.7393214,24.8963134 20.8678643,24.8963134 Z M21.4213573,18.8248848 C21.1269461,18.5368664 20.7854291,18.3986175 20.3850299,18.4101382 C19.9846307,18.4101382 19.6195609,18.5599078 19.3015968,18.8248848 C18.9836327,19.1013825 18.7716567,19.5046083 18.6538922,20.0576037 L21.9041916,20.0576037 C21.8688623,19.516129 21.703992,19.1129032 21.4213573,18.8248848 Z" id="Shape"></path>
                    <path d="M28.3694611,18.4101382 C27.8512974,18.4101382 27.3331337,18.6059908 26.8149701,18.9861751 L26.8149701,24.735023 L25.0013972,24.735023 L25.0013972,16.8548387 L26.5441118,16.8548387 L26.7325349,17.5 C27.3684631,16.9700461 28.051497,16.7050691 28.7580838,16.7050691 C29.4646707,16.7050691 30.0063872,16.8087558 30.3832335,17.016129 L29.8061876,18.8133641 C29.3704591,18.5483871 28.8876248,18.4101382 28.3694611,18.4101382 Z" id="Shape"></path>
                    <path d="M33.2802395,13.7442396 L33.2802395,17.4193548 C34.0221557,16.9470046 34.8347305,16.7165899 35.7061876,16.7165899 C36.5776447,16.7165899 37.2842315,16.9585253 37.849501,17.4193548 C38.402994,17.8801843 38.6856287,18.5829493 38.6856287,19.5046083 L38.6856287,24.735023 L36.8602794,24.735023 L36.8602794,20.0345622 C36.8602794,19.4815668 36.6836327,19.078341 36.3421158,18.8133641 C36.0005988,18.5483871 35.5413174,18.421659 34.952495,18.421659 C34.3636727,18.421659 33.7984032,18.5829493 33.2802395,18.90553 L33.2802395,24.735023 L31.4666667,24.735023 L31.4666667,13.8940092 L33.0093812,13.7442396 L33.2802395,13.7442396 Z" id="Shape"></path>
                    <path d="M44.2323353,24.8963134 C43.0546906,24.8963134 42.0772455,24.5391705 41.2764471,23.8248848 C40.4756487,23.1105991 40.0752495,22.1198157 40.0752495,20.8410138 C40.0752495,19.562212 40.4403194,18.5483871 41.1586826,17.8110599 C41.8770459,17.0737327 42.7249501,16.7050691 43.7023952,16.7050691 C44.1145709,16.7050691 44.5149701,16.7626728 44.8918164,16.8894009 C45.4688623,17.0852535 45.9281437,17.4078341 46.2696607,17.8801843 C46.7053892,18.4677419 46.9291417,19.2741935 46.9291417,20.2764977 L46.9291417,21.4631336 L42.0419162,21.4631336 C42.1832335,22.062212 42.4658683,22.4884793 42.9015968,22.7764977 C43.3373253,23.0645161 43.8790419,23.1912442 44.5149701,23.1912442 C45.1508982,23.1912442 45.7868263,23.0184332 46.4463074,22.6728111 L46.5169661,22.6958525 L46.5169661,24.4239631 C45.8692615,24.735023 45.1037924,24.8963134 44.2323353,24.8963134 Z M44.7858283,18.8248848 C44.4914172,18.5368664 44.1499002,18.3986175 43.749501,18.4101382 C43.3491018,18.4101382 42.9840319,18.5599078 42.6660679,18.8248848 C42.3481038,19.1013825 42.1361277,19.5046083 42.0183633,20.0576037 L45.2686627,20.0576037 C45.2333333,19.516129 45.0684631,19.1129032 44.7858283,18.8248848 Z" id="Shape"></path>
                    <path d="M49.2726547,15.8294931 C48.9782435,15.8294931 48.7191617,15.7258065 48.5071856,15.5299539 C48.2952096,15.3341014 48.200998,15.0921659 48.200998,14.7926267 C48.200998,14.5046083 48.306986,14.2511521 48.5071856,14.0437788 C48.7191617,13.8364055 48.9664671,13.7442396 49.2726547,13.7442396 C49.5670659,13.7442396 49.8261477,13.8479263 50.0381238,14.0552995 C50.2500998,14.2626728 50.3443114,14.5046083 50.3443114,14.7926267 C50.3443114,15.0806452 50.2383234,15.3225806 50.0381238,15.5184332 C49.8261477,15.7258065 49.5670659,15.8294931 49.2726547,15.8294931 Z M48.3658683,16.8548387 L50.1794411,16.8548387 L50.1794411,24.735023 L48.3658683,24.735023 L48.3658683,16.8548387 Z" id="Shape"></path>
                    <path d="M58.894012,24.735023 L57.5161677,24.735023 L57.1864271,24.1474654 C56.5033932,24.6428571 55.7850299,24.8963134 55.0195609,24.8963134 C53.9361277,24.8963134 53.1117764,24.5276498 52.5229541,23.8018433 C51.9341317,23.0760369 51.6397206,22.1774194 51.6397206,21.1175115 C51.6397206,19.6774194 52.0283433,18.59447 52.8055888,17.8341014 C53.5828343,17.0852535 54.6073852,16.7050691 55.8792415,16.7050691 C56.2678643,16.7050691 56.656487,16.7281106 57.0686627,16.7857143 L57.0686627,13.90553 L58.6113772,13.7557604 L58.894012,13.7557604 L58.894012,24.735023 Z M55.7850299,18.3410138 C55.0666667,18.3410138 54.5013972,18.5483871 54.0892216,18.9631336 C53.6770459,19.3778802 53.4650699,19.9539171 53.4650699,20.6682028 C53.4650699,21.3824885 53.6417166,21.9815668 53.9832335,22.4654378 C54.3247505,22.9493088 54.7958084,23.1797235 55.3964072,23.1797235 C55.9852295,23.1797235 56.550499,23.0184332 57.0804391,22.6958525 L57.0804391,18.5023041 C56.6211577,18.3986175 56.1972056,18.3410138 55.7850299,18.3410138 Z" id="Shape"></path>
                </g>
            </g>
        </g>
    </g>
</svg>